<?xml version="1.0" encoding="utf-8"?>

<svg version="1.0" id="Capa_1" xmlns="http://www.w3.org/2000/svg" xmlns:xlink="http://www.w3.org/1999/xlink" x="0px" y="0px" viewBox="0 0 1920 1080" style="enable-background:new 0 0 1920 1080;" xml:space="preserve">

<g transform="matrix(1, 0, 0, 1, 53, 436)">
&#x9;<g>
&#x9;&#x9;<defs>
&#x9;&#x9;&#x9;<rect id="SVGID_1_" x="17.67" y="145.33" width="1806.67" height="310.67"></rect>
&#x9;&#x9;</defs>
&#x9;&#x9;<clipPath id="SVGID_00000031193245585062293440000009510527256261660852_">
&#x9;&#x9;&#x9;<use xlink:href="#SVGID_1_" style="overflow:visible;"></use>
&#x9;&#x9;</clipPath>
&#x9;&#x9;<g style="clip-path:url(#SVGID_00000031193245585062293440000009510527256261660852_);">
&#x9;&#x9;&#x9;<g>
&#x9;&#x9;&#x9;&#x9;<g transform="translate(0.785101, 186.912717)">
&#x9;&#x9;&#x9;&#x9;&#x9;<g>
&#x9;&#x9;&#x9;&#x9;&#x9;&#x9;<path class="st1" d="M128.37,207.64H41.12V-0.32h141.88c33.92,0,61.28,2.54,82.1,7.6c20.82,5.07,36.01,13.04,45.56,23.92&#xA;&#x9;&#x9;&#x9;&#x9;&#x9;&#x9;&#x9;c9.57,10.88,14.35,25.06,14.35,42.54c0,17.39-4.79,31.52-14.35,42.4c-9.56,10.86-24.74,18.83-45.56,23.9&#xA;&#x9;&#x9;&#x9;&#x9;&#x9;&#x9;&#x9;c-20.82,5.07-48.19,7.6-82.1,7.6h-54.62V207.64z M128.37,96.35l49.83-0.15c13.92,0,24.88-0.55,32.9-1.67&#xA;&#x9;&#x9;&#x9;&#x9;&#x9;&#x9;&#x9;c8.03-1.11,13.94-2.68,17.75-4.71c3.82-2.03,6.26-4.42,7.31-7.17c1.07-2.76,1.6-5.73,1.6-8.92c0-3.29-0.54-6.31-1.6-9.06&#xA;&#x9;&#x9;&#x9;&#x9;&#x9;&#x9;&#x9;c-1.06-2.75-3.49-5.14-7.31-7.17c-3.81-2.04-9.72-3.61-17.75-4.73c-8.02-1.11-18.98-1.67-32.9-1.67h-49.83V96.35z"></path>
&#x9;&#x9;&#x9;&#x9;&#x9;</g>
&#x9;&#x9;&#x9;&#x9;</g>
&#x9;&#x9;&#x9;</g>
&#x9;&#x9;&#x9;<g>
&#x9;&#x9;&#x9;&#x9;<g transform="translate(239.779805, 186.912717)">
&#x9;&#x9;&#x9;&#x9;&#x9;<g>
&#x9;&#x9;&#x9;&#x9;&#x9;&#x9;<path class="st1" d="M243.82,212.14c-50.72,0-86.43-10.53-107.1-31.6c-17.39-17.68-26.08-43.23-26.08-76.67V-0.17h87.25&#xA;&#x9;&#x9;&#x9;&#x9;&#x9;&#x9;&#x9;v104.04c0,14.5,2.46,25.95,7.38,34.35c7.05,12.08,19.91,18.12,38.56,18.12c18.83,0,31.73-6.04,38.69-18.12&#xA;&#x9;&#x9;&#x9;&#x9;&#x9;&#x9;&#x9;c4.93-8.69,7.4-20.15,7.4-34.35V-0.17h87.23v105.21c0,32.66-8.65,57.82-25.94,75.5C330.43,201.61,294.64,212.14,243.82,212.14&#xA;&#x9;&#x9;&#x9;&#x9;&#x9;&#x9;&#x9;z"></path>
&#x9;&#x9;&#x9;&#x9;&#x9;</g>
&#x9;&#x9;&#x9;&#x9;</g>
&#x9;&#x9;&#x9;</g>
&#x9;&#x9;&#x9;<g>
&#x9;&#x9;&#x9;&#x9;<g transform="translate(459.211504, 186.912717)">
&#x9;&#x9;&#x9;&#x9;&#x9;<g>
&#x9;&#x9;&#x9;&#x9;&#x9;&#x9;<path class="st1" d="M444.34,207.64H193.92V-0.32H432.9v51.44H281.17v32.62h128.25v39.98H281.17v32.48h163.17V207.64z"></path>
&#x9;&#x9;&#x9;&#x9;&#x9;</g>
&#x9;&#x9;&#x9;&#x9;</g>
&#x9;&#x9;&#x9;</g>
&#x9;&#x9;&#x9;<g>
&#x9;&#x9;&#x9;&#x9;<g transform="translate(673.10034, 186.912717)">
&#x9;&#x9;&#x9;&#x9;&#x9;<g>
&#x9;&#x9;&#x9;&#x9;&#x9;&#x9;<path class="st1" d="M573.74,207.64H469.99L352.47,66.93v140.71h-87.25V-0.32h103.77l117.52,140v-140h87.23V207.64z"></path>
&#x9;&#x9;&#x9;&#x9;&#x9;</g>
&#x9;&#x9;&#x9;&#x9;</g>
&#x9;&#x9;&#x9;</g>
&#x9;&#x9;&#x9;<g>
&#x9;&#x9;&#x9;&#x9;<g transform="translate(939.265881, 186.912717)">
&#x9;&#x9;&#x9;&#x9;&#x9;<g>
&#x9;&#x9;&#x9;&#x9;&#x9;&#x9;<path class="st1" d="M508.13,207.64H420.9V51.12h-81.46V-0.32h250.15v51.44h-81.46V207.64z"></path>
&#x9;&#x9;&#x9;&#x9;&#x9;</g>
&#x9;&#x9;&#x9;&#x9;</g>
&#x9;&#x9;&#x9;</g>
&#x9;&#x9;&#x9;<g>
&#x9;&#x9;&#x9;&#x9;<g transform="translate(1139.895323, 186.912717)">
&#x9;&#x9;&#x9;&#x9;&#x9;<g>
&#x9;&#x9;&#x9;&#x9;&#x9;&#x9;<path class="st1" d="M671.24,207.64H420.82V-0.32H659.8v51.44H508.07v32.62h128.25v39.98H508.07v32.48h163.17V207.64z"></path>
&#x9;&#x9;&#x9;&#x9;&#x9;</g>
&#x9;&#x9;&#x9;&#x9;</g>
&#x9;&#x9;&#x9;</g>
&#x9;&#x9;</g>
&#x9;</g>
</g>
<g>
&#x9;<defs>
&#x9;&#x9;<rect id="SVGID_00000083050883419335170710000008654334656886140297_" x="1402.67" y="229.33" width="106.67" height="742.67"></rect>
&#x9;</defs>
&#x9;<clipPath id="SVGID_00000038401198045729567720000003998989014577373857_">
&#x9;&#x9;<use xlink:href="#SVGID_00000083050883419335170710000008654334656886140297_" style="overflow:visible;"></use>
&#x9;</clipPath>
&#x9;<g style="clip-path:url(#SVGID_00000038401198045729567720000003998989014577373857_);">
&#x9;&#x9;<g>
&#x9;&#x9;&#x9;<defs>
&#x9;&#x9;&#x9;&#x9;<path id="SVGID_00000051375776154259628920000008319396325275120015_" d="M1502.31,277.04&#xA;&#x9;&#x9;&#x9;&#x9;&#x9;c-11.98,331.23,11.97,603.96-5.07,661.09c-4.61,15.2-9.68,20.27-17.97,25.8c-7.83,5.07-20.27,8.29-29.94,7.37&#xA;&#x9;&#x9;&#x9;&#x9;&#x9;c-9.68-1.38-21.19-7.37-27.64-14.74c-6.45-6.91-11.98-18.43-11.06-29.03c1.38-13.82,16.58-38.23,27.64-47.45&#xA;&#x9;&#x9;&#x9;&#x9;&#x9;c7.83-6.45,17.51-8.76,26.26-9.21c9.21,0,19.81,3.68,26.72,8.75c6.91,5.53,13.36,16.12,16.12,23.04&#xA;&#x9;&#x9;&#x9;&#x9;&#x9;c1.84,5.07,2.3,8.76,1.38,14.28c-0.92,7.37-5.53,19.81-10.14,25.8c-3.22,4.61-5.99,6.91-10.59,9.21&#xA;&#x9;&#x9;&#x9;&#x9;&#x9;c-6.91,3.69-19.81,6.45-27.18,6.45c-5.53,0-9.21-0.92-13.82-3.69c-6.45-3.69-16.12-12.9-20.27-18.89&#xA;&#x9;&#x9;&#x9;&#x9;&#x9;c-3.23-4.61-4.15-8.3-4.61-13.36c-0.92-7.83,1.38-20.73,4.15-27.64c1.84-5.07,4.15-8.29,8.29-11.52&#xA;&#x9;&#x9;&#x9;&#x9;&#x9;c5.99-4.61,16.59-11.06,25.34-11.98c8.76-0.92,20.73,2.3,27.18,5.99c5.07,2.3,7.83,4.61,11.06,8.76&#xA;&#x9;&#x9;&#x9;&#x9;&#x9;c4.6,5.99,10.14,17.04,10.59,25.8c0.46,9.21-5.07,27.18-7.37,27.18c-0.92,0-1.39-11.52-3.22-11.52&#xA;&#x9;&#x9;&#x9;&#x9;&#x9;c-2.31,0-5.53,22.11-11.06,29.03c-4.15,5.99-10.6,9.67-17.05,11.98c-6.45,2.3-13.82,4.15-20.73,2.76&#xA;&#x9;&#x9;&#x9;&#x9;&#x9;c-8.76-1.84-21.19-7.37-27.64-14.74c-6.45-6.91-7.83-12.9-11.06-29.03c-11.06-59.43-7.83-320.64-5.53-441.8&#xA;&#x9;&#x9;&#x9;&#x9;&#x9;c1.39-84.77,0.46-178.75,10.14-216.06c3.69-14.28,6.45-21.66,13.36-28.1c7.38-6.45,19.35-11.52,29.03-11.98&#xA;&#x9;&#x9;&#x9;&#x9;&#x9;c9.67-0.46,22.11,4.61,29.02,10.14c5.99,4.15,10.14,10.6,12.44,16.59C1501.85,262.76,1502.31,277.04,1502.31,277.04z"></path>
&#x9;&#x9;&#x9;</defs>
&#x9;&#x9;&#x9;<clipPath id="SVGID_00000032609230604262804750000018156637492830990503_">
&#x9;&#x9;&#x9;&#x9;<use xlink:href="#SVGID_00000051375776154259628920000008319396325275120015_" style="overflow:visible;"></use>
&#x9;&#x9;&#x9;</clipPath>
&#x9;&#x9;&#x9;<g style="clip-path:url(#SVGID_00000032609230604262804750000018156637492830990503_);">
&#x9;&#x9;&#x9;&#x9;<g transform="matrix(1, 0, 0, 1, 1052, 172)">
&#x9;&#x9;&#x9;&#x9;&#x9;<g>
&#x9;&#x9;&#x9;&#x9;&#x9;&#x9;<defs>
&#x9;&#x9;&#x9;&#x9;&#x9;&#x9;&#x9;
&#x9;&#x9;&#x9;&#x9;&#x9;&#x9;&#x9;&#x9;<rect id="SVGID_00000066481192610100701300000007469124298429888181_" x="350.67" y="57.33" width="106.67" height="742.67"></rect>
&#x9;&#x9;&#x9;&#x9;&#x9;&#x9;</defs>
&#x9;&#x9;&#x9;&#x9;&#x9;&#x9;<clipPath id="SVGID_00000011006205380247391480000012836168496789778068_">
&#x9;&#x9;&#x9;&#x9;&#x9;&#x9;&#x9;<use xlink:href="#SVGID_00000066481192610100701300000007469124298429888181_" style="overflow:visible;"></use>
&#x9;&#x9;&#x9;&#x9;&#x9;&#x9;</clipPath>
&#x9;&#x9;&#x9;&#x9;&#x9;&#x9;<g style="clip-path:url(#SVGID_00000011006205380247391480000012836168496789778068_);">
&#x9;&#x9;&#x9;&#x9;&#x9;&#x9;&#x9;<g>
&#x9;&#x9;&#x9;&#x9;&#x9;&#x9;&#x9;&#x9;<defs>
&#x9;&#x9;&#x9;&#x9;&#x9;&#x9;&#x9;&#x9;&#x9;
&#x9;&#x9;&#x9;&#x9;&#x9;&#x9;&#x9;&#x9;&#x9;&#x9;<rect id="SVGID_00000124150697845424430100000010037541353410088072_" x="350.67" y="57.33" width="106.67" height="742.67"></rect>
&#x9;&#x9;&#x9;&#x9;&#x9;&#x9;&#x9;&#x9;</defs>
&#x9;&#x9;&#x9;&#x9;&#x9;&#x9;&#x9;&#x9;<clipPath id="SVGID_00000067923859926819361580000001242310326351918233_">
&#x9;&#x9;&#x9;&#x9;&#x9;&#x9;&#x9;&#x9;&#x9;<use xlink:href="#SVGID_00000124150697845424430100000010037541353410088072_" style="overflow:visible;"></use>
&#x9;&#x9;&#x9;&#x9;&#x9;&#x9;&#x9;&#x9;</clipPath>
&#x9;&#x9;&#x9;&#x9;&#x9;&#x9;&#x9;&#x9;<g style="clip-path:url(#SVGID_00000067923859926819361580000001242310326351918233_);">
&#x9;&#x9;&#x9;&#x9;&#x9;&#x9;&#x9;&#x9;&#x9;<g>
&#x9;&#x9;&#x9;&#x9;&#x9;&#x9;&#x9;&#x9;&#x9;&#x9;<defs>
&#x9;&#x9;&#x9;&#x9;&#x9;&#x9;&#x9;&#x9;&#x9;&#x9;&#x9;<path id="SVGID_00000097472639856094924840000010629291346737958536_" d="M450.31,105.04&#xA;&#x9;&#x9;&#x9;&#x9;&#x9;&#x9;&#x9;&#x9;&#x9;&#x9;&#x9;&#x9;c-11.98,331.23,11.97,603.96-5.07,661.09c-4.61,15.2-9.68,20.27-17.97,25.8c-7.83,5.07-20.27,8.29-29.94,7.37&#xA;&#x9;&#x9;&#x9;&#x9;&#x9;&#x9;&#x9;&#x9;&#x9;&#x9;&#x9;&#x9;c-9.68-1.38-21.19-7.37-27.64-14.74c-6.45-6.91-11.98-18.43-11.06-29.03c1.38-13.82,16.58-38.23,27.64-47.45&#xA;&#x9;&#x9;&#x9;&#x9;&#x9;&#x9;&#x9;&#x9;&#x9;&#x9;&#x9;&#x9;c7.83-6.45,17.51-8.76,26.26-9.21c9.21,0,19.81,3.68,26.72,8.75c6.91,5.53,13.36,16.12,16.12,23.04&#xA;&#x9;&#x9;&#x9;&#x9;&#x9;&#x9;&#x9;&#x9;&#x9;&#x9;&#x9;&#x9;c1.84,5.07,2.3,8.76,1.38,14.28c-0.92,7.37-5.53,19.81-10.14,25.8c-3.22,4.61-5.99,6.91-10.59,9.21&#xA;&#x9;&#x9;&#x9;&#x9;&#x9;&#x9;&#x9;&#x9;&#x9;&#x9;&#x9;&#x9;c-6.91,3.69-19.81,6.45-27.18,6.45c-5.53,0-9.21-0.92-13.82-3.69c-6.45-3.69-16.12-12.9-20.27-18.89&#xA;&#x9;&#x9;&#x9;&#x9;&#x9;&#x9;&#x9;&#x9;&#x9;&#x9;&#x9;&#x9;c-3.23-4.61-4.15-8.3-4.61-13.36c-0.92-7.83,1.38-20.73,4.15-27.64c1.84-5.07,4.15-8.29,8.29-11.52&#xA;&#x9;&#x9;&#x9;&#x9;&#x9;&#x9;&#x9;&#x9;&#x9;&#x9;&#x9;&#x9;c5.99-4.61,16.59-11.06,25.34-11.98c8.76-0.92,20.73,2.3,27.18,5.99c5.07,2.3,7.83,4.61,11.06,8.76&#xA;&#x9;&#x9;&#x9;&#x9;&#x9;&#x9;&#x9;&#x9;&#x9;&#x9;&#x9;&#x9;c4.6,5.99,10.14,17.04,10.59,25.8c0.46,9.21-5.07,27.18-7.37,27.18c-0.92,0-1.39-11.52-3.22-11.52&#xA;&#x9;&#x9;&#x9;&#x9;&#x9;&#x9;&#x9;&#x9;&#x9;&#x9;&#x9;&#x9;c-2.31,0-5.53,22.11-11.06,29.03c-4.15,5.99-10.6,9.67-17.05,11.98c-6.45,2.3-13.82,4.15-20.73,2.76&#xA;&#x9;&#x9;&#x9;&#x9;&#x9;&#x9;&#x9;&#x9;&#x9;&#x9;&#x9;&#x9;c-8.76-1.84-21.19-7.37-27.64-14.74c-6.45-6.91-7.83-12.9-11.06-29.03c-11.06-59.43-7.83-320.64-5.53-441.8&#xA;&#x9;&#x9;&#x9;&#x9;&#x9;&#x9;&#x9;&#x9;&#x9;&#x9;&#x9;&#x9;c1.39-84.77,0.46-178.75,10.14-216.06c3.69-14.28,6.45-21.66,13.36-28.1c7.38-6.45,19.35-11.52,29.03-11.98&#xA;&#x9;&#x9;&#x9;&#x9;&#x9;&#x9;&#x9;&#x9;&#x9;&#x9;&#x9;&#x9;c9.67-0.46,22.11,4.61,29.02,10.14c5.99,4.15,10.14,10.6,12.44,16.59C449.85,90.76,450.31,105.04,450.31,105.04z"></path>
&#x9;&#x9;&#x9;&#x9;&#x9;&#x9;&#x9;&#x9;&#x9;&#x9;</defs>
&#x9;&#x9;&#x9;&#x9;&#x9;&#x9;&#x9;&#x9;&#x9;&#x9;<clipPath id="SVGID_00000014625031654985068940000002188069290636029856_">
&#x9;&#x9;&#x9;&#x9;&#x9;&#x9;&#x9;&#x9;&#x9;&#x9;&#x9;<use xlink:href="#SVGID_00000097472639856094924840000010629291346737958536_" style="overflow:visible;"></use>
&#x9;&#x9;&#x9;&#x9;&#x9;&#x9;&#x9;&#x9;&#x9;&#x9;</clipPath>
&#x9;&#x9;&#x9;&#x9;&#x9;&#x9;&#x9;&#x9;&#x9;&#x9;<g style="clip-path:url(#SVGID_00000014625031654985068940000002188069290636029856_);">
&#x9;&#x9;&#x9;&#x9;&#x9;&#x9;&#x9;&#x9;&#x9;&#x9;&#x9;<rect x="-1474.4" y="-409.6" class="st1" width="2764.8" height="1555.2"></rect>
&#x9;&#x9;&#x9;&#x9;&#x9;&#x9;&#x9;&#x9;&#x9;&#x9;</g>
&#x9;&#x9;&#x9;&#x9;&#x9;&#x9;&#x9;&#x9;&#x9;</g>
&#x9;&#x9;&#x9;&#x9;&#x9;&#x9;&#x9;&#x9;</g>
&#x9;&#x9;&#x9;&#x9;&#x9;&#x9;&#x9;</g>
&#x9;&#x9;&#x9;&#x9;&#x9;&#x9;</g>
&#x9;&#x9;&#x9;&#x9;&#x9;</g>
&#x9;&#x9;&#x9;&#x9;</g>
&#x9;&#x9;&#x9;</g>
&#x9;&#x9;</g>
&#x9;</g>
</g>
<g>
&#x9;<defs>
&#x9;&#x9;<rect id="SVGID_00000028288430491203016680000001943966040478069664_" x="144.28" y="413.68" width="1658.68" height="72.57"></rect>
&#x9;</defs>
&#x9;<clipPath id="SVGID_00000038396751206295282510000001354078457372649102_">
&#x9;&#x9;<use xlink:href="#SVGID_00000028288430491203016680000001943966040478069664_" style="overflow:visible;"></use>
&#x9;</clipPath>
&#x9;<g style="clip-path:url(#SVGID_00000038396751206295282510000001354078457372649102_);">
&#x9;&#x9;<g>
&#x9;&#x9;&#x9;<defs>
&#x9;&#x9;&#x9;&#x9;<path id="SVGID_00000127036737355226758970000016636964264211683460_" d="M164.73,437.84c96.74,0.22,149.81,5.68,191.96,5.9&#xA;&#x9;&#x9;&#x9;&#x9;&#x9;c39.09,0.43,71.19-3.49,113.78-3.71c54.82-0.44,113.78,3.49,188.03,4.36c108.1,0.88,274.73-0.44,397.9-1.74&#xA;&#x9;&#x9;&#x9;&#x9;&#x9;c106.35-1.09,197.42-2.62,297.88-5.24c102.86-2.84,246.99-5.9,312.51-11.36c30.35-2.4,45.86-6.55,66.17-8.52&#xA;&#x9;&#x9;&#x9;&#x9;&#x9;c17.69-1.96,37.99-4.81,48.92-3.49c5.68,0.66,9.39,1.53,12.67,4.15c3.28,2.4,6.33,6.77,7.42,10.92&#xA;&#x9;&#x9;&#x9;&#x9;&#x9;c1.31,3.93,1.09,9.17-0.43,13.1c-1.53,3.93-5.68,8.08-8.52,10.27c-2.18,1.53-4.15,1.96-6.33,2.4c-2.18,0.66-4.15,0.88-6.55,0.44&#xA;&#x9;&#x9;&#x9;&#x9;&#x9;c-3.49-0.66-9.17-2.62-12.23-5.46c-3.06-2.84-5.46-7.43-6.33-11.58c-0.65-4.15,0.66-9.83,2.19-13.1&#xA;&#x9;&#x9;&#x9;&#x9;&#x9;c0.87-2.4,1.96-3.71,3.93-5.46c2.84-2.18,7.86-5.02,12.02-5.68c4.15-0.44,9.82,1.31,12.88,2.84c2.41,1.09,3.71,2.18,5.24,4.37&#xA;&#x9;&#x9;&#x9;&#x9;&#x9;c2.18,2.84,4.8,8.08,5.02,12.23c0.22,4.15-1.74,9.61-3.49,12.67c-1.09,2.4-2.4,3.71-4.58,5.02c-2.84,1.96-7.21,3.28-12.45,4.37&#xA;&#x9;&#x9;&#x9;&#x9;&#x9;c-8.95,1.74-22.28,0.66-36.26,2.18c-19.21,1.74-37.12,6.55-68.35,9.17c-67.92,5.9-214.67,8.95-323.21,12.01&#xA;&#x9;&#x9;&#x9;&#x9;&#x9;c-110.28,2.84-219.91,4.59-333.26,5.68c-118.36,1.09-261.62,2.19-362.95,1.31c-72.51-0.88-136.49-4.8-187.38-4.37&#xA;&#x9;&#x9;&#x9;&#x9;&#x9;c-34.72,0.22-59.18,3.06-87.79,3.28c-26.86,0.44-52.41,0.44-78.83-0.65c-26.43-1.09-54.38-4.59-79.49-5.46&#xA;&#x9;&#x9;&#x9;&#x9;&#x9;c-22.28-0.66-50.88,3.93-63.77,0c-6.11-1.74-9.61-4.15-12.23-7.86c-2.84-3.71-4.59-9.61-4.15-14.2&#xA;&#x9;&#x9;&#x9;&#x9;&#x9;c0.44-4.58,3.06-10.04,6.55-13.1C154.46,440.25,164.73,437.84,164.73,437.84z"></path>
&#x9;&#x9;&#x9;</defs>
&#x9;&#x9;&#x9;<clipPath id="SVGID_00000163794769337000923220000005764369822432029108_">
&#x9;&#x9;&#x9;&#x9;<use xlink:href="#SVGID_00000127036737355226758970000016636964264211683460_" style="overflow:visible;"></use>
&#x9;&#x9;&#x9;</clipPath>
&#x9;&#x9;&#x9;<g style="clip-path:url(#SVGID_00000163794769337000923220000005764369822432029108_);">
&#x9;&#x9;&#x9;&#x9;<g transform="matrix(1, 0, 0, 1, 108, 310)">
&#x9;&#x9;&#x9;&#x9;&#x9;<g>
&#x9;&#x9;&#x9;&#x9;&#x9;&#x9;<defs>
&#x9;&#x9;&#x9;&#x9;&#x9;&#x9;&#x9;<rect id="SVGID_00000007428470505125290730000002723263014620893857_" x="36" y="103.33" width="1660" height="73.33"></rect>
&#x9;&#x9;&#x9;&#x9;&#x9;&#x9;</defs>
&#x9;&#x9;&#x9;&#x9;&#x9;&#x9;<clipPath id="SVGID_00000048495868932050097370000011759762314177787288_">
&#x9;&#x9;&#x9;&#x9;&#x9;&#x9;&#x9;<use xlink:href="#SVGID_00000007428470505125290730000002723263014620893857_" style="overflow:visible;"></use>
&#x9;&#x9;&#x9;&#x9;&#x9;&#x9;</clipPath>
&#x9;&#x9;&#x9;&#x9;&#x9;&#x9;<g style="clip-path:url(#SVGID_00000048495868932050097370000011759762314177787288_);">
&#x9;&#x9;&#x9;&#x9;&#x9;&#x9;&#x9;<g>
&#x9;&#x9;&#x9;&#x9;&#x9;&#x9;&#x9;&#x9;<defs>
&#x9;&#x9;&#x9;&#x9;&#x9;&#x9;&#x9;&#x9;&#x9;
&#x9;&#x9;&#x9;&#x9;&#x9;&#x9;&#x9;&#x9;&#x9;&#x9;<rect id="SVGID_00000127736290931898372030000005655525864909451147_" x="36.28" y="103.68" width="1658.68" height="72.57"></rect>
&#x9;&#x9;&#x9;&#x9;&#x9;&#x9;&#x9;&#x9;</defs>
&#x9;&#x9;&#x9;&#x9;&#x9;&#x9;&#x9;&#x9;<clipPath id="SVGID_00000127040008934922914230000013135766855057762486_">
&#x9;&#x9;&#x9;&#x9;&#x9;&#x9;&#x9;&#x9;&#x9;<use xlink:href="#SVGID_00000127736290931898372030000005655525864909451147_" style="overflow:visible;"></use>
&#x9;&#x9;&#x9;&#x9;&#x9;&#x9;&#x9;&#x9;</clipPath>
&#x9;&#x9;&#x9;&#x9;&#x9;&#x9;&#x9;&#x9;<g style="clip-path:url(#SVGID_00000127040008934922914230000013135766855057762486_);">
&#x9;&#x9;&#x9;&#x9;&#x9;&#x9;&#x9;&#x9;&#x9;<g>
&#x9;&#x9;&#x9;&#x9;&#x9;&#x9;&#x9;&#x9;&#x9;&#x9;<defs>
&#x9;&#x9;&#x9;&#x9;&#x9;&#x9;&#x9;&#x9;&#x9;&#x9;&#x9;<path id="SVGID_00000142174299163004039090000015360202976794783907_" d="M56.73,127.84&#xA;&#x9;&#x9;&#x9;&#x9;&#x9;&#x9;&#x9;&#x9;&#x9;&#x9;&#x9;&#x9;c96.74,0.22,149.81,5.68,191.96,5.9c39.09,0.43,71.19-3.49,113.78-3.71c54.82-0.44,113.78,3.49,188.03,4.36&#xA;&#x9;&#x9;&#x9;&#x9;&#x9;&#x9;&#x9;&#x9;&#x9;&#x9;&#x9;&#x9;c108.1,0.88,274.73-0.44,397.9-1.74c106.35-1.09,197.42-2.62,297.88-5.24c102.86-2.84,246.99-5.9,312.51-11.36&#xA;&#x9;&#x9;&#x9;&#x9;&#x9;&#x9;&#x9;&#x9;&#x9;&#x9;&#x9;&#x9;c30.35-2.4,45.86-6.55,66.17-8.52c17.69-1.96,37.99-4.81,48.92-3.49c5.68,0.66,9.39,1.53,12.67,4.15&#xA;&#x9;&#x9;&#x9;&#x9;&#x9;&#x9;&#x9;&#x9;&#x9;&#x9;&#x9;&#x9;c3.28,2.4,6.33,6.77,7.42,10.92c1.31,3.93,1.09,9.17-0.43,13.1c-1.53,3.93-5.68,8.08-8.52,10.27&#xA;&#x9;&#x9;&#x9;&#x9;&#x9;&#x9;&#x9;&#x9;&#x9;&#x9;&#x9;&#x9;c-2.18,1.53-4.15,1.96-6.33,2.4c-2.18,0.66-4.15,0.88-6.55,0.44c-3.49-0.66-9.17-2.62-12.23-5.46&#xA;&#x9;&#x9;&#x9;&#x9;&#x9;&#x9;&#x9;&#x9;&#x9;&#x9;&#x9;&#x9;c-3.06-2.84-5.46-7.43-6.33-11.58c-0.65-4.15,0.66-9.83,2.19-13.1c0.87-2.4,1.96-3.71,3.93-5.46&#xA;&#x9;&#x9;&#x9;&#x9;&#x9;&#x9;&#x9;&#x9;&#x9;&#x9;&#x9;&#x9;c2.84-2.18,7.86-5.02,12.02-5.68c4.15-0.44,9.82,1.31,12.88,2.84c2.41,1.09,3.71,2.18,5.24,4.37&#xA;&#x9;&#x9;&#x9;&#x9;&#x9;&#x9;&#x9;&#x9;&#x9;&#x9;&#x9;&#x9;c2.18,2.84,4.8,8.08,5.02,12.23c0.22,4.15-1.74,9.61-3.49,12.67c-1.09,2.4-2.4,3.71-4.58,5.02&#xA;&#x9;&#x9;&#x9;&#x9;&#x9;&#x9;&#x9;&#x9;&#x9;&#x9;&#x9;&#x9;c-2.84,1.96-7.21,3.28-12.45,4.37c-8.95,1.74-22.28,0.66-36.26,2.18c-19.21,1.74-37.12,6.55-68.35,9.17&#xA;&#x9;&#x9;&#x9;&#x9;&#x9;&#x9;&#x9;&#x9;&#x9;&#x9;&#x9;&#x9;c-67.92,5.9-214.67,8.95-323.21,12.01c-110.28,2.84-219.91,4.59-333.26,5.68c-118.36,1.09-261.62,2.19-362.95,1.31&#xA;&#x9;&#x9;&#x9;&#x9;&#x9;&#x9;&#x9;&#x9;&#x9;&#x9;&#x9;&#x9;c-72.51-0.88-136.49-4.8-187.38-4.37c-34.72,0.22-59.18,3.06-87.79,3.28c-26.86,0.44-52.41,0.44-78.83-0.65&#xA;&#x9;&#x9;&#x9;&#x9;&#x9;&#x9;&#x9;&#x9;&#x9;&#x9;&#x9;&#x9;c-26.43-1.09-54.38-4.59-79.49-5.46c-22.28-0.66-50.88,3.93-63.77,0c-6.11-1.74-9.61-4.15-12.23-7.86&#xA;&#x9;&#x9;&#x9;&#x9;&#x9;&#x9;&#x9;&#x9;&#x9;&#x9;&#x9;&#x9;c-2.84-3.71-4.59-9.61-4.15-14.2c0.44-4.58,3.06-10.04,6.55-13.1C46.46,130.25,56.73,127.84,56.73,127.84z"></path>
&#x9;&#x9;&#x9;&#x9;&#x9;&#x9;&#x9;&#x9;&#x9;&#x9;</defs>
&#x9;&#x9;&#x9;&#x9;&#x9;&#x9;&#x9;&#x9;&#x9;&#x9;<clipPath id="SVGID_00000106860598227633308270000017948154578079208071_">
&#x9;&#x9;&#x9;&#x9;&#x9;&#x9;&#x9;&#x9;&#x9;&#x9;&#x9;<use xlink:href="#SVGID_00000142174299163004039090000015360202976794783907_" style="overflow:visible;"></use>
&#x9;&#x9;&#x9;&#x9;&#x9;&#x9;&#x9;&#x9;&#x9;&#x9;</clipPath>
&#x9;&#x9;&#x9;&#x9;&#x9;&#x9;&#x9;&#x9;&#x9;&#x9;<g style="clip-path:url(#SVGID_00000106860598227633308270000017948154578079208071_);">
&#x9;&#x9;&#x9;&#x9;&#x9;&#x9;&#x9;&#x9;&#x9;&#x9;&#x9;<rect x="-530.4" y="-547.6" class="st1" width="2764.8" height="1555.2"></rect>
&#x9;&#x9;&#x9;&#x9;&#x9;&#x9;&#x9;&#x9;&#x9;&#x9;</g>
&#x9;&#x9;&#x9;&#x9;&#x9;&#x9;&#x9;&#x9;&#x9;</g>
&#x9;&#x9;&#x9;&#x9;&#x9;&#x9;&#x9;&#x9;</g>
&#x9;&#x9;&#x9;&#x9;&#x9;&#x9;&#x9;</g>
&#x9;&#x9;&#x9;&#x9;&#x9;&#x9;</g>
&#x9;&#x9;&#x9;&#x9;&#x9;</g>
&#x9;&#x9;&#x9;&#x9;</g>
&#x9;&#x9;&#x9;</g>
&#x9;&#x9;</g>
&#x9;</g>
</g>
<g>
&#x9;<defs>
&#x9;&#x9;<rect id="SVGID_00000046329665480426343850000017234766573560480447_" x="136" y="530.67" width="1660" height="64"></rect>
&#x9;</defs>
&#x9;<clipPath id="SVGID_00000086690845453334020520000011673693589707112105_">
&#x9;&#x9;<use xlink:href="#SVGID_00000046329665480426343850000017234766573560480447_" style="overflow:visible;"></use>
&#x9;</clipPath>
&#x9;<g style="clip-path:url(#SVGID_00000086690845453334020520000011673693589707112105_);">
&#x9;&#x9;<g>
&#x9;&#x9;&#x9;<defs>
&#x9;&#x9;&#x9;&#x9;
&#x9;&#x9;&#x9;&#x9;&#x9;<rect id="SVGID_00000080170005927290742520000013778607602337556669_" x="929.64" y="-262.01" transform="matrix(0.0179 -0.9998 0.9998 0.0179 381.3676 1522.9241)" width="72.57" height="1658.69"></rect>
&#x9;&#x9;&#x9;</defs>
&#x9;&#x9;&#x9;<clipPath id="SVGID_00000144318536452044883050000002004638484681962431_">
&#x9;&#x9;&#x9;&#x9;<use xlink:href="#SVGID_00000080170005927290742520000013778607602337556669_" style="overflow:visible;"></use>
&#x9;&#x9;&#x9;</clipPath>
&#x9;&#x9;&#x9;<g style="clip-path:url(#SVGID_00000144318536452044883050000002004638484681962431_);">
&#x9;&#x9;&#x9;&#x9;<g>
&#x9;&#x9;&#x9;&#x9;&#x9;<defs>
&#x9;&#x9;&#x9;&#x9;&#x9;&#x9;<path id="SVGID_00000119089175987782275140000003922701422198004615_" d="M1774.46,593.95&#xA;&#x9;&#x9;&#x9;&#x9;&#x9;&#x9;&#x9;c-96.72-1.95-149.68-8.36-191.82-9.33c-39.07-1.14-71.24,2.21-113.82,1.67c-54.82-0.55-113.7-5.54-187.92-7.74&#xA;&#x9;&#x9;&#x9;&#x9;&#x9;&#x9;&#x9;c-108.07-2.81-274.69-4.49-397.86-5.39c-106.35-0.82-197.43-0.92-297.92-0.1c-102.9,0.99-247.06,1.47-312.66,5.75&#xA;&#x9;&#x9;&#x9;&#x9;&#x9;&#x9;&#x9;c-30.4,1.86-45.97,5.73-66.31,7.33c-17.72,1.65-38.08,4.12-48.97,2.61c-5.67-0.76-9.36-1.7-12.59-4.38&#xA;&#x9;&#x9;&#x9;&#x9;&#x9;&#x9;&#x9;c-3.23-2.46-6.21-6.89-7.23-11.05c-1.24-3.95-0.93-9.19,0.67-13.09c1.6-3.9,5.82-7.97,8.7-10.11&#xA;&#x9;&#x9;&#x9;&#x9;&#x9;&#x9;&#x9;c2.21-1.49,4.19-1.89,6.38-2.29c2.2-0.61,4.17-0.8,6.56-0.32c3.48,0.71,9.12,2.78,12.13,5.68c3.01,2.89,5.32,7.52,6.12,11.68&#xA;&#x9;&#x9;&#x9;&#x9;&#x9;&#x9;&#x9;c0.58,4.16-0.83,9.82-2.42,13.06c-0.92,2.39-2.03,3.68-4.03,5.39c-2.88,2.13-7.95,4.88-12.11,5.46&#xA;&#x9;&#x9;&#x9;&#x9;&#x9;&#x9;&#x9;c-4.16,0.36-9.8-1.49-12.83-3.07c-2.39-1.14-3.67-2.25-5.16-4.46c-2.14-2.88-4.66-8.17-4.81-12.32&#xA;&#x9;&#x9;&#x9;&#x9;&#x9;&#x9;&#x9;c-0.14-4.16,1.92-9.58,3.72-12.6c1.14-2.38,2.47-3.67,4.68-4.94c2.87-1.92,7.26-3.15,12.52-4.15&#xA;&#x9;&#x9;&#x9;&#x9;&#x9;&#x9;&#x9;c8.98-1.58,22.29-0.26,36.29-1.53c19.24-1.41,37.23-5.89,68.51-7.95c68.02-4.68,214.8-5.1,323.38-6.21&#xA;&#x9;&#x9;&#x9;&#x9;&#x9;&#x9;&#x9;c110.32-0.86,219.96-0.64,333.3,0.3c118.36,1.03,261.62,2.51,362.92,5.2c72.47,2.18,136.38,7.25,187.27,7.73&#xA;&#x9;&#x9;&#x9;&#x9;&#x9;&#x9;&#x9;c34.72,0.4,59.22-1.99,87.83-1.7c26.86,0.05,52.41,0.51,78.81,2.07c26.4,1.57,54.29,5.56,79.38,6.89&#xA;&#x9;&#x9;&#x9;&#x9;&#x9;&#x9;&#x9;c22.26,1.06,50.95-3.02,63.76,1.15c6.08,1.85,9.53,4.32,12.08,8.08c2.78,3.76,4.42,9.69,3.9,14.27&#xA;&#x9;&#x9;&#x9;&#x9;&#x9;&#x9;&#x9;c-0.52,4.58-3.23,9.99-6.79,12.98C1784.77,591.73,1774.46,593.95,1774.46,593.95z"></path>
&#x9;&#x9;&#x9;&#x9;&#x9;</defs>
&#x9;&#x9;&#x9;&#x9;&#x9;<clipPath id="SVGID_00000111157753165392583510000002107318346307174289_">
&#x9;&#x9;&#x9;&#x9;&#x9;&#x9;<use xlink:href="#SVGID_00000119089175987782275140000003922701422198004615_" style="overflow:visible;"></use>
&#x9;&#x9;&#x9;&#x9;&#x9;</clipPath>
&#x9;&#x9;&#x9;&#x9;&#x9;<g style="clip-path:url(#SVGID_00000111157753165392583510000002107318346307174289_);">
&#x9;&#x9;&#x9;&#x9;&#x9;&#x9;<g transform="matrix(1, 0, 0, 1, 102, 398)">
&#x9;&#x9;&#x9;&#x9;&#x9;&#x9;&#x9;<g>
&#x9;&#x9;&#x9;&#x9;&#x9;&#x9;&#x9;&#x9;<defs>
&#x9;&#x9;&#x9;&#x9;&#x9;&#x9;&#x9;&#x9;&#x9;<rect id="SVGID_00000102512605247367022030000012232658178635733892_" x="34" y="132.67" width="1660" height="64"></rect>
&#x9;&#x9;&#x9;&#x9;&#x9;&#x9;&#x9;&#x9;</defs>
&#x9;&#x9;&#x9;&#x9;&#x9;&#x9;&#x9;&#x9;<clipPath id="SVGID_00000086664767762457086280000012304326552643992199_">
&#x9;&#x9;&#x9;&#x9;&#x9;&#x9;&#x9;&#x9;&#x9;<use xlink:href="#SVGID_00000102512605247367022030000012232658178635733892_" style="overflow:visible;"></use>
&#x9;&#x9;&#x9;&#x9;&#x9;&#x9;&#x9;&#x9;</clipPath>
&#x9;&#x9;&#x9;&#x9;&#x9;&#x9;&#x9;&#x9;<g style="clip-path:url(#SVGID_00000086664767762457086280000012304326552643992199_);">
&#x9;&#x9;&#x9;&#x9;&#x9;&#x9;&#x9;&#x9;&#x9;<g>
&#x9;&#x9;&#x9;&#x9;&#x9;&#x9;&#x9;&#x9;&#x9;&#x9;<defs>
&#x9;&#x9;&#x9;&#x9;&#x9;&#x9;&#x9;&#x9;&#x9;&#x9;&#x9;
&#x9;&#x9;&#x9;&#x9;&#x9;&#x9;&#x9;&#x9;&#x9;&#x9;&#x9;&#x9;<rect id="SVGID_00000111155766619473190860000010204488476530042272_" x="34" y="132.67" width="1659.52" height="63.57"></rect>
&#x9;&#x9;&#x9;&#x9;&#x9;&#x9;&#x9;&#x9;&#x9;&#x9;</defs>
&#x9;&#x9;&#x9;&#x9;&#x9;&#x9;&#x9;&#x9;&#x9;&#x9;<clipPath id="SVGID_00000041294299843881639250000001338161875459062974_">
&#x9;&#x9;&#x9;&#x9;&#x9;&#x9;&#x9;&#x9;&#x9;&#x9;&#x9;<use xlink:href="#SVGID_00000111155766619473190860000010204488476530042272_" style="overflow:visible;"></use>
&#x9;&#x9;&#x9;&#x9;&#x9;&#x9;&#x9;&#x9;&#x9;&#x9;</clipPath>
&#x9;&#x9;&#x9;&#x9;&#x9;&#x9;&#x9;&#x9;&#x9;&#x9;<g style="clip-path:url(#SVGID_00000041294299843881639250000001338161875459062974_);">
&#x9;&#x9;&#x9;&#x9;&#x9;&#x9;&#x9;&#x9;&#x9;&#x9;&#x9;<g>
&#x9;&#x9;&#x9;&#x9;&#x9;&#x9;&#x9;&#x9;&#x9;&#x9;&#x9;&#x9;<defs>
&#x9;&#x9;&#x9;&#x9;&#x9;&#x9;&#x9;&#x9;&#x9;&#x9;&#x9;&#x9;&#x9;
&#x9;&#x9;&#x9;&#x9;&#x9;&#x9;&#x9;&#x9;&#x9;&#x9;&#x9;&#x9;&#x9;&#x9;<rect id="SVGID_00000034805698727449533310000008793401522648359045_" x="827.64" y="-660.01" transform="matrix(0.0179 -0.9998 0.9998 0.0179 679.1325 1030.0764)" width="72.57" height="1658.69"></rect>
&#x9;&#x9;&#x9;&#x9;&#x9;&#x9;&#x9;&#x9;&#x9;&#x9;&#x9;&#x9;</defs>
&#x9;&#x9;&#x9;&#x9;&#x9;&#x9;&#x9;&#x9;&#x9;&#x9;&#x9;&#x9;<clipPath id="SVGID_00000136406535654343306200000004379598971237066672_">
&#x9;&#x9;&#x9;&#x9;&#x9;&#x9;&#x9;&#x9;&#x9;&#x9;&#x9;&#x9;&#x9;<use xlink:href="#SVGID_00000034805698727449533310000008793401522648359045_" style="overflow:visible;"></use>
&#x9;&#x9;&#x9;&#x9;&#x9;&#x9;&#x9;&#x9;&#x9;&#x9;&#x9;&#x9;</clipPath>
&#x9;&#x9;&#x9;&#x9;&#x9;&#x9;&#x9;&#x9;&#x9;&#x9;&#x9;&#x9;<g style="clip-path:url(#SVGID_00000136406535654343306200000004379598971237066672_);">
&#x9;&#x9;&#x9;&#x9;&#x9;&#x9;&#x9;&#x9;&#x9;&#x9;&#x9;&#x9;&#x9;<g>
&#x9;&#x9;&#x9;&#x9;&#x9;&#x9;&#x9;&#x9;&#x9;&#x9;&#x9;&#x9;&#x9;&#x9;<defs>
&#x9;&#x9;&#x9;&#x9;&#x9;&#x9;&#x9;&#x9;&#x9;&#x9;&#x9;&#x9;&#x9;&#x9;&#x9;<path id="SVGID_00000145769349949998106810000001649683697474299274_" d="M1672.46,195.95&#xA;&#x9;&#x9;&#x9;&#x9;&#x9;&#x9;&#x9;&#x9;&#x9;&#x9;&#x9;&#x9;&#x9;&#x9;&#x9;&#x9;c-96.72-1.95-149.68-8.36-191.82-9.33c-39.07-1.14-71.24,2.21-113.82,1.67c-54.82-0.55-113.7-5.54-187.92-7.74&#xA;&#x9;&#x9;&#x9;&#x9;&#x9;&#x9;&#x9;&#x9;&#x9;&#x9;&#x9;&#x9;&#x9;&#x9;&#x9;&#x9;c-108.07-2.81-274.69-4.49-397.86-5.39c-106.35-0.82-197.43-0.92-297.92-0.1c-102.9,0.99-247.06,1.47-312.66,5.75&#xA;&#x9;&#x9;&#x9;&#x9;&#x9;&#x9;&#x9;&#x9;&#x9;&#x9;&#x9;&#x9;&#x9;&#x9;&#x9;&#x9;c-30.4,1.86-45.97,5.73-66.31,7.33c-17.72,1.65-38.08,4.12-48.97,2.61c-5.67-0.76-9.36-1.7-12.59-4.38&#xA;&#x9;&#x9;&#x9;&#x9;&#x9;&#x9;&#x9;&#x9;&#x9;&#x9;&#x9;&#x9;&#x9;&#x9;&#x9;&#x9;c-3.23-2.46-6.21-6.89-7.23-11.05c-1.24-3.95-0.93-9.19,0.67-13.09c1.6-3.9,5.82-7.97,8.7-10.11&#xA;&#x9;&#x9;&#x9;&#x9;&#x9;&#x9;&#x9;&#x9;&#x9;&#x9;&#x9;&#x9;&#x9;&#x9;&#x9;&#x9;c2.21-1.49,4.19-1.89,6.38-2.29c2.2-0.61,4.17-0.8,6.56-0.32c3.48,0.71,9.12,2.78,12.13,5.68&#xA;&#x9;&#x9;&#x9;&#x9;&#x9;&#x9;&#x9;&#x9;&#x9;&#x9;&#x9;&#x9;&#x9;&#x9;&#x9;&#x9;c3.01,2.89,5.32,7.52,6.12,11.68c0.58,4.16-0.83,9.82-2.42,13.06c-0.92,2.39-2.03,3.68-4.03,5.39&#xA;&#x9;&#x9;&#x9;&#x9;&#x9;&#x9;&#x9;&#x9;&#x9;&#x9;&#x9;&#x9;&#x9;&#x9;&#x9;&#x9;c-2.88,2.13-7.95,4.88-12.11,5.46c-4.16,0.36-9.8-1.49-12.83-3.07c-2.39-1.14-3.67-2.25-5.16-4.46&#xA;&#x9;&#x9;&#x9;&#x9;&#x9;&#x9;&#x9;&#x9;&#x9;&#x9;&#x9;&#x9;&#x9;&#x9;&#x9;&#x9;c-2.14-2.88-4.66-8.17-4.81-12.32c-0.14-4.16,1.92-9.58,3.72-12.6c1.14-2.38,2.47-3.67,4.68-4.94&#xA;&#x9;&#x9;&#x9;&#x9;&#x9;&#x9;&#x9;&#x9;&#x9;&#x9;&#x9;&#x9;&#x9;&#x9;&#x9;&#x9;c2.87-1.92,7.26-3.15,12.52-4.15c8.98-1.58,22.29-0.26,36.29-1.53c19.24-1.41,37.23-5.89,68.51-7.95&#xA;&#x9;&#x9;&#x9;&#x9;&#x9;&#x9;&#x9;&#x9;&#x9;&#x9;&#x9;&#x9;&#x9;&#x9;&#x9;&#x9;c68.02-4.68,214.8-5.1,323.38-6.21c110.32-0.86,219.96-0.64,333.3,0.3c118.36,1.03,261.62,2.51,362.92,5.2&#xA;&#x9;&#x9;&#x9;&#x9;&#x9;&#x9;&#x9;&#x9;&#x9;&#x9;&#x9;&#x9;&#x9;&#x9;&#x9;&#x9;c72.47,2.18,136.38,7.25,187.27,7.73c34.72,0.4,59.22-1.99,87.83-1.7c26.86,0.05,52.41,0.51,78.81,2.07&#xA;&#x9;&#x9;&#x9;&#x9;&#x9;&#x9;&#x9;&#x9;&#x9;&#x9;&#x9;&#x9;&#x9;&#x9;&#x9;&#x9;c26.4,1.57,54.29,5.56,79.38,6.89c22.26,1.06,50.95-3.02,63.76,1.15c6.08,1.85,9.53,4.32,12.08,8.08&#xA;&#x9;&#x9;&#x9;&#x9;&#x9;&#x9;&#x9;&#x9;&#x9;&#x9;&#x9;&#x9;&#x9;&#x9;&#x9;&#x9;c2.78,3.76,4.42,9.69,3.9,14.27c-0.52,4.58-3.23,9.99-6.79,12.98C1682.77,193.73,1672.46,195.95,1672.46,195.95z"></path>
&#x9;&#x9;&#x9;&#x9;&#x9;&#x9;&#x9;&#x9;&#x9;&#x9;&#x9;&#x9;&#x9;&#x9;</defs>
&#x9;&#x9;&#x9;&#x9;&#x9;&#x9;&#x9;&#x9;&#x9;&#x9;&#x9;&#x9;&#x9;&#x9;<clipPath id="SVGID_00000137105042532003901240000005740609155808859059_">
&#x9;&#x9;&#x9;&#x9;&#x9;&#x9;&#x9;&#x9;&#x9;&#x9;&#x9;&#x9;&#x9;&#x9;&#x9;<use xlink:href="#SVGID_00000145769349949998106810000001649683697474299274_" style="overflow:visible;"></use>
&#x9;&#x9;&#x9;&#x9;&#x9;&#x9;&#x9;&#x9;&#x9;&#x9;&#x9;&#x9;&#x9;&#x9;</clipPath>
&#x9;&#x9;&#x9;&#x9;&#x9;&#x9;&#x9;&#x9;&#x9;&#x9;&#x9;&#x9;&#x9;&#x9;<g style="clip-path:url(#SVGID_00000137105042532003901240000005740609155808859059_);">
&#x9;&#x9;&#x9;&#x9;&#x9;&#x9;&#x9;&#x9;&#x9;&#x9;&#x9;&#x9;&#x9;&#x9;&#x9;<path class="st1" d="M1700.7,229L25.19,198.95l1.6-89.3l1675.52,30.05L1700.7,229z"></path>
&#x9;&#x9;&#x9;&#x9;&#x9;&#x9;&#x9;&#x9;&#x9;&#x9;&#x9;&#x9;&#x9;&#x9;</g>
&#x9;&#x9;&#x9;&#x9;&#x9;&#x9;&#x9;&#x9;&#x9;&#x9;&#x9;&#x9;&#x9;</g>
&#x9;&#x9;&#x9;&#x9;&#x9;&#x9;&#x9;&#x9;&#x9;&#x9;&#x9;&#x9;</g>
&#x9;&#x9;&#x9;&#x9;&#x9;&#x9;&#x9;&#x9;&#x9;&#x9;&#x9;</g>
&#x9;&#x9;&#x9;&#x9;&#x9;&#x9;&#x9;&#x9;&#x9;&#x9;</g>
&#x9;&#x9;&#x9;&#x9;&#x9;&#x9;&#x9;&#x9;&#x9;</g>
&#x9;&#x9;&#x9;&#x9;&#x9;&#x9;&#x9;&#x9;</g>
&#x9;&#x9;&#x9;&#x9;&#x9;&#x9;&#x9;</g>
&#x9;&#x9;&#x9;&#x9;&#x9;&#x9;</g>
&#x9;&#x9;&#x9;&#x9;&#x9;</g>
&#x9;&#x9;&#x9;&#x9;</g>
&#x9;&#x9;&#x9;</g>
&#x9;&#x9;</g>
&#x9;</g>
</g>
<g>
&#x9;<defs>
&#x9;&#x9;<rect id="SVGID_00000150783561506609864980000006192712259498131849_" x="186.77" y="234.73" width="1527.9" height="374.6"></rect>
&#x9;</defs>
&#x9;<clipPath id="SVGID_00000125586364788116910500000015602023739670763707_">
&#x9;&#x9;<use xlink:href="#SVGID_00000150783561506609864980000006192712259498131849_" style="overflow:visible;"></use>
&#x9;</clipPath>
&#x9;<g style="clip-path:url(#SVGID_00000125586364788116910500000015602023739670763707_);">
&#x9;&#x9;<g>
&#x9;&#x9;&#x9;<defs>
&#x9;&#x9;&#x9;&#x9;<path id="SVGID_00000045580842967551832280000017530236971715638688_" d="M193.33,560.36&#xA;&#x9;&#x9;&#x9;&#x9;&#x9;c151.12-155.05,157.46-160.29,166.85-167.5c8.95-6.77,15.72-11.57,26.42-18.12c15.51-9.17,33.2-19.22,58.96-30.36&#xA;&#x9;&#x9;&#x9;&#x9;&#x9;c44.33-19.21,153.74-54.59,187.38-65.95c12.45-4.15,15.29-5.46,25.55-8.08c15.29-4.15,35.81-8.52,57.43-12.23&#xA;&#x9;&#x9;&#x9;&#x9;&#x9;c27.3-4.58,62.46-8.52,94.12-11.35c32.32-2.84,64.86-4.59,97.62-5.68c32.97-1.31,69.66-0.22,99.15-1.31&#xA;&#x9;&#x9;&#x9;&#x9;&#x9;c24.02-0.88,39.96-3.28,65.08-3.93c34.51-0.87,95.87,0.22,123.39,1.75c13.98,0.66,20.97,1.09,31.23,2.84&#xA;&#x9;&#x9;&#x9;&#x9;&#x9;c10.05,1.74,18.78,4.58,29.92,7.64c14.19,3.93,32.76,8.96,48.7,14.42c15.72,5.46,32.1,13.97,46.08,18.34&#xA;&#x9;&#x9;&#x9;&#x9;&#x9;c10.92,3.71,20.53,4.36,30.14,7.42c9.39,3.06,15.72,5.68,26.42,10.7c18.34,8.52,50.67,22.93,72.07,38.66&#xA;&#x9;&#x9;&#x9;&#x9;&#x9;c20.74,15.29,35.81,37.56,54.81,53.94c18.34,15.72,44.11,31.45,57.44,42.81c7.64,6.77,10.27,9.6,17.03,17.03&#xA;&#x9;&#x9;&#x9;&#x9;&#x9;c11.8,13.1,31.67,37.12,45.86,55.47c13.54,17.69,29.26,38.88,37.78,52.63c5.24,8.08,6.77,17.47,11.14,20.31&#xA;&#x9;&#x9;&#x9;&#x9;&#x9;c2.4,1.74,6.77-1.09,8.3,0.66c2.19,2.4,1.75,10.48,0.22,14.85c-1.53,4.36-5.68,8.95-9.61,11.14&#xA;&#x9;&#x9;&#x9;&#x9;&#x9;c-4.15,1.97-10.26,2.84-14.63,1.75c-4.59-1.09-9.83-5.68-12.23-8.3c-1.31-1.53-2.18-2.18-2.4-4.36c0-5.24,8.3-23.59,12.67-27.08&#xA;&#x9;&#x9;&#x9;&#x9;&#x9;c2.18-1.74,4.15-1.31,6.77-1.09c3.49,0.22,9.17,1.53,12.45,4.15c3.28,2.62,6.33,7.65,7.43,10.92c0.88,2.4,1.09,4.15,0.88,6.77&#xA;&#x9;&#x9;&#x9;&#x9;&#x9;c-0.44,3.49-2.19,8.95-5.03,12.23c-2.62,3.28-7.86,5.9-11.14,6.77c-2.62,0.87-4.59,0.65-6.77,0.44&#xA;&#x9;&#x9;&#x9;&#x9;&#x9;c-2.18-0.22-4.36-0.44-6.55-1.75c-3.06-1.74-7.64-5.46-9.61-9.17c-1.96-3.49-2.4-9.39-2.18-12.89c0.22-2.62,1.09-4.58,2.18-6.55&#xA;&#x9;&#x9;&#x9;&#x9;&#x9;c1.09-1.74,1.97-3.71,3.93-5.24c2.84-2.18,8.52-5.02,12.01-5.68c2.62-0.44,4.37-0.22,6.77,0.44c3.49,1.09,8.73,3.71,11.35,6.77&#xA;&#x9;&#x9;&#x9;&#x9;&#x9;c2.84,3.28,4.37,8.74,5.03,12.23c0.22,2.62,0,4.36-0.88,6.77c-1.09,3.28-6.55,11.36-7.21,10.92&#xA;&#x9;&#x9;&#x9;&#x9;&#x9;c-1.09-0.44,5.68-24.02,6.55-24.02c0.88,0.21,1.75,10.48,0.22,14.85c-1.53,4.36-5.68,8.95-9.61,11.14&#xA;&#x9;&#x9;&#x9;&#x9;&#x9;c-4.15,1.97-10.48,2.62-14.63,1.75c-3.49-0.66-6.55-2.41-8.95-4.59c-2.4-1.96-3.06-5.24-5.68-8.08&#xA;&#x9;&#x9;&#x9;&#x9;&#x9;c-3.71-4.15-9.61-6.99-15.72-13.54c-11.58-12.45-28.17-39.96-43.9-59.4c-16.38-20.09-32.98-41.06-52.19-58.74&#xA;&#x9;&#x9;&#x9;&#x9;&#x9;c-19.22-17.91-45.65-32.32-63.55-48.26c-14.85-13.32-27.08-30.58-37.56-39.75c-6.55-5.68-9.39-7.64-17.47-12.23&#xA;&#x9;&#x9;&#x9;&#x9;&#x9;c-15.51-9.39-49.14-26.64-71.41-34.94c-18.56-6.98-39.53-9.17-52.85-13.97c-8.52-3.28-11.8-6.33-20.31-9.61&#xA;&#x9;&#x9;&#x9;&#x9;&#x9;c-13.76-5.46-40.62-13.32-54.81-17.47c-8.95-2.62-14.42-4.59-22.28-5.9c-8.3-1.53-14.63-1.97-26.86-2.62&#xA;&#x9;&#x9;&#x9;&#x9;&#x9;c-25.77-1.31-86.48-2.62-120.77-1.74c-25.55,0.44-42.58,3.06-67.04,3.93c-29.05,1.09-63.98,0-96.09,1.09&#xA;&#x9;&#x9;&#x9;&#x9;&#x9;c-31.89,1.09-63.77,2.84-95.43,5.68c-31.23,2.84-66.39,6.77-92.82,11.14c-19.87,3.28-29.26,4.58-52.19,10.92&#xA;&#x9;&#x9;&#x9;&#x9;&#x9;c-46.73,12.89-162.48,52.85-208.56,72.51c-23.8,10.27-38.87,19-52.63,27.08c-9.17,5.46-14.85,9.39-22.28,15.07&#xA;&#x9;&#x9;&#x9;&#x9;&#x9;c-8.52,6.33-13.97,10.92-25.55,21.84c-28.39,26.64-117.05,131.46-141.07,145.01c-6.55,3.71-9.83,3.93-14.42,3.28&#xA;&#x9;&#x9;&#x9;&#x9;&#x9;c-4.36-0.66-9.82-3.49-12.88-6.99c-2.84-3.49-5.03-9.39-5.03-13.97C188.09,569.31,193.33,560.36,193.33,560.36z"></path>
&#x9;&#x9;&#x9;</defs>
&#x9;&#x9;&#x9;<clipPath id="SVGID_00000037661236395629787160000003520558215972990127_">
&#x9;&#x9;&#x9;&#x9;<use xlink:href="#SVGID_00000045580842967551832280000017530236971715638688_" style="overflow:visible;"></use>
&#x9;&#x9;&#x9;</clipPath>
&#x9;&#x9;&#x9;<g style="clip-path:url(#SVGID_00000037661236395629787160000003520558215972990127_);">
&#x9;&#x9;&#x9;&#x9;<g transform="matrix(1, 0, 0, 1, 140, 176)">
&#x9;&#x9;&#x9;&#x9;&#x9;<g>
&#x9;&#x9;&#x9;&#x9;&#x9;&#x9;<defs>
&#x9;&#x9;&#x9;&#x9;&#x9;&#x9;&#x9;<rect id="SVGID_00000091723436465367884220000002749303047163620253_" x="46.67" y="58.67" width="1528" height="374.67"></rect>
&#x9;&#x9;&#x9;&#x9;&#x9;&#x9;</defs>
&#x9;&#x9;&#x9;&#x9;&#x9;&#x9;<clipPath id="SVGID_00000006671000608333114750000006864724579620487093_">
&#x9;&#x9;&#x9;&#x9;&#x9;&#x9;&#x9;<use xlink:href="#SVGID_00000091723436465367884220000002749303047163620253_" style="overflow:visible;"></use>
&#x9;&#x9;&#x9;&#x9;&#x9;&#x9;</clipPath>
&#x9;&#x9;&#x9;&#x9;&#x9;&#x9;<g style="clip-path:url(#SVGID_00000006671000608333114750000006864724579620487093_);">
&#x9;&#x9;&#x9;&#x9;&#x9;&#x9;&#x9;<g>
&#x9;&#x9;&#x9;&#x9;&#x9;&#x9;&#x9;&#x9;<defs>
&#x9;&#x9;&#x9;&#x9;&#x9;&#x9;&#x9;&#x9;&#x9;
&#x9;&#x9;&#x9;&#x9;&#x9;&#x9;&#x9;&#x9;&#x9;&#x9;<rect id="SVGID_00000066473195731825071910000000132703461274609848_" x="47.84" y="58.88" width="1526.72" height="374.4"></rect>
&#x9;&#x9;&#x9;&#x9;&#x9;&#x9;&#x9;&#x9;</defs>
&#x9;&#x9;&#x9;&#x9;&#x9;&#x9;&#x9;&#x9;<clipPath id="SVGID_00000142873301449705887620000005303744110064330651_">
&#x9;&#x9;&#x9;&#x9;&#x9;&#x9;&#x9;&#x9;&#x9;<use xlink:href="#SVGID_00000066473195731825071910000000132703461274609848_" style="overflow:visible;"></use>
&#x9;&#x9;&#x9;&#x9;&#x9;&#x9;&#x9;&#x9;</clipPath>
&#x9;&#x9;&#x9;&#x9;&#x9;&#x9;&#x9;&#x9;<g style="clip-path:url(#SVGID_00000142873301449705887620000005303744110064330651_);">
&#x9;&#x9;&#x9;&#x9;&#x9;&#x9;&#x9;&#x9;&#x9;<g>
&#x9;&#x9;&#x9;&#x9;&#x9;&#x9;&#x9;&#x9;&#x9;&#x9;<defs>
&#x9;&#x9;&#x9;&#x9;&#x9;&#x9;&#x9;&#x9;&#x9;&#x9;&#x9;<path id="SVGID_00000140012753499253612800000013056384387657474477_" d="M53.33,384.36&#xA;&#x9;&#x9;&#x9;&#x9;&#x9;&#x9;&#x9;&#x9;&#x9;&#x9;&#x9;&#x9;c151.12-155.05,157.46-160.29,166.85-167.5c8.95-6.77,15.72-11.57,26.42-18.12c15.51-9.17,33.2-19.22,58.96-30.36&#xA;&#x9;&#x9;&#x9;&#x9;&#x9;&#x9;&#x9;&#x9;&#x9;&#x9;&#x9;&#x9;c44.33-19.21,153.74-54.59,187.38-65.95c12.45-4.15,15.29-5.46,25.55-8.08c15.29-4.15,35.81-8.52,57.43-12.23&#xA;&#x9;&#x9;&#x9;&#x9;&#x9;&#x9;&#x9;&#x9;&#x9;&#x9;&#x9;&#x9;c27.3-4.58,62.46-8.52,94.12-11.35c32.32-2.84,64.86-4.59,97.62-5.68c32.97-1.31,69.66-0.22,99.15-1.31&#xA;&#x9;&#x9;&#x9;&#x9;&#x9;&#x9;&#x9;&#x9;&#x9;&#x9;&#x9;&#x9;c24.02-0.88,39.96-3.28,65.08-3.93c34.51-0.87,95.87,0.22,123.39,1.75c13.98,0.66,20.97,1.09,31.23,2.84&#xA;&#x9;&#x9;&#x9;&#x9;&#x9;&#x9;&#x9;&#x9;&#x9;&#x9;&#x9;&#x9;c10.05,1.74,18.78,4.58,29.92,7.64c14.19,3.93,32.76,8.96,48.7,14.42c15.72,5.46,32.1,13.97,46.08,18.34&#xA;&#x9;&#x9;&#x9;&#x9;&#x9;&#x9;&#x9;&#x9;&#x9;&#x9;&#x9;&#x9;c10.92,3.71,20.53,4.36,30.14,7.42c9.39,3.06,15.72,5.68,26.42,10.7c18.34,8.52,50.67,22.93,72.07,38.66&#xA;&#x9;&#x9;&#x9;&#x9;&#x9;&#x9;&#x9;&#x9;&#x9;&#x9;&#x9;&#x9;c20.74,15.29,35.81,37.56,54.81,53.94c18.34,15.72,44.11,31.45,57.44,42.81c7.64,6.77,10.27,9.6,17.03,17.03&#xA;&#x9;&#x9;&#x9;&#x9;&#x9;&#x9;&#x9;&#x9;&#x9;&#x9;&#x9;&#x9;c11.8,13.1,31.67,37.12,45.86,55.47c13.54,17.69,29.26,38.88,37.78,52.63c5.24,8.08,6.77,17.47,11.14,20.31&#xA;&#x9;&#x9;&#x9;&#x9;&#x9;&#x9;&#x9;&#x9;&#x9;&#x9;&#x9;&#x9;c2.4,1.74,6.77-1.09,8.3,0.66c2.19,2.4,1.75,10.48,0.22,14.85c-1.53,4.36-5.68,8.95-9.61,11.14&#xA;&#x9;&#x9;&#x9;&#x9;&#x9;&#x9;&#x9;&#x9;&#x9;&#x9;&#x9;&#x9;c-4.15,1.97-10.26,2.84-14.63,1.75c-4.59-1.09-9.83-5.68-12.23-8.3c-1.31-1.53-2.18-2.18-2.4-4.36&#xA;&#x9;&#x9;&#x9;&#x9;&#x9;&#x9;&#x9;&#x9;&#x9;&#x9;&#x9;&#x9;c0-5.24,8.3-23.59,12.67-27.08c2.18-1.74,4.15-1.31,6.77-1.09c3.49,0.22,9.17,1.53,12.45,4.15&#xA;&#x9;&#x9;&#x9;&#x9;&#x9;&#x9;&#x9;&#x9;&#x9;&#x9;&#x9;&#x9;c3.28,2.62,6.33,7.65,7.43,10.92c0.88,2.4,1.09,4.15,0.88,6.77c-0.44,3.49-2.19,8.95-5.03,12.23&#xA;&#x9;&#x9;&#x9;&#x9;&#x9;&#x9;&#x9;&#x9;&#x9;&#x9;&#x9;&#x9;c-2.62,3.28-7.86,5.9-11.14,6.77c-2.62,0.87-4.59,0.65-6.77,0.44c-2.18-0.22-4.36-0.44-6.55-1.75&#xA;&#x9;&#x9;&#x9;&#x9;&#x9;&#x9;&#x9;&#x9;&#x9;&#x9;&#x9;&#x9;c-3.06-1.74-7.64-5.46-9.61-9.17c-1.96-3.49-2.4-9.39-2.18-12.89c0.22-2.62,1.09-4.58,2.18-6.55&#xA;&#x9;&#x9;&#x9;&#x9;&#x9;&#x9;&#x9;&#x9;&#x9;&#x9;&#x9;&#x9;c1.09-1.74,1.97-3.71,3.93-5.24c2.84-2.18,8.52-5.02,12.01-5.68c2.62-0.44,4.37-0.22,6.77,0.44&#xA;&#x9;&#x9;&#x9;&#x9;&#x9;&#x9;&#x9;&#x9;&#x9;&#x9;&#x9;&#x9;c3.49,1.09,8.73,3.71,11.35,6.77c2.84,3.28,4.37,8.74,5.03,12.23c0.22,2.62,0,4.36-0.88,6.77&#xA;&#x9;&#x9;&#x9;&#x9;&#x9;&#x9;&#x9;&#x9;&#x9;&#x9;&#x9;&#x9;c-1.09,3.28-6.55,11.36-7.21,10.92c-1.09-0.44,5.68-24.02,6.55-24.02c0.88,0.21,1.75,10.48,0.22,14.85&#xA;&#x9;&#x9;&#x9;&#x9;&#x9;&#x9;&#x9;&#x9;&#x9;&#x9;&#x9;&#x9;c-1.53,4.36-5.68,8.95-9.61,11.14c-4.15,1.97-10.48,2.62-14.63,1.75c-3.49-0.66-6.55-2.41-8.95-4.59&#xA;&#x9;&#x9;&#x9;&#x9;&#x9;&#x9;&#x9;&#x9;&#x9;&#x9;&#x9;&#x9;c-2.4-1.96-3.06-5.24-5.68-8.08c-3.71-4.15-9.61-6.99-15.72-13.54c-11.58-12.45-28.17-39.96-43.9-59.4&#xA;&#x9;&#x9;&#x9;&#x9;&#x9;&#x9;&#x9;&#x9;&#x9;&#x9;&#x9;&#x9;c-16.38-20.09-32.98-41.06-52.19-58.74c-19.22-17.91-45.65-32.32-63.55-48.26c-14.85-13.32-27.08-30.58-37.56-39.75&#xA;&#x9;&#x9;&#x9;&#x9;&#x9;&#x9;&#x9;&#x9;&#x9;&#x9;&#x9;&#x9;c-6.55-5.68-9.39-7.64-17.47-12.23c-15.51-9.39-49.14-26.64-71.41-34.94c-18.56-6.98-39.53-9.17-52.85-13.97&#xA;&#x9;&#x9;&#x9;&#x9;&#x9;&#x9;&#x9;&#x9;&#x9;&#x9;&#x9;&#x9;c-8.52-3.28-11.8-6.33-20.31-9.61c-13.76-5.46-40.62-13.32-54.81-17.47c-8.95-2.62-14.42-4.59-22.28-5.9&#xA;&#x9;&#x9;&#x9;&#x9;&#x9;&#x9;&#x9;&#x9;&#x9;&#x9;&#x9;&#x9;c-8.3-1.53-14.63-1.97-26.86-2.62c-25.77-1.31-86.48-2.62-120.77-1.74c-25.55,0.44-42.58,3.06-67.04,3.93&#xA;&#x9;&#x9;&#x9;&#x9;&#x9;&#x9;&#x9;&#x9;&#x9;&#x9;&#x9;&#x9;c-29.05,1.09-63.98,0-96.09,1.09c-31.89,1.09-63.77,2.84-95.43,5.68c-31.23,2.84-66.39,6.77-92.82,11.14&#xA;&#x9;&#x9;&#x9;&#x9;&#x9;&#x9;&#x9;&#x9;&#x9;&#x9;&#x9;&#x9;c-19.87,3.28-29.26,4.58-52.19,10.92c-46.73,12.89-162.48,52.85-208.56,72.51c-23.8,10.27-38.87,19-52.63,27.08&#xA;&#x9;&#x9;&#x9;&#x9;&#x9;&#x9;&#x9;&#x9;&#x9;&#x9;&#x9;&#x9;c-9.17,5.46-14.85,9.39-22.28,15.07c-8.52,6.33-13.97,10.92-25.55,21.84C192.89,297.22,104.22,402.05,80.2,415.59&#xA;&#x9;&#x9;&#x9;&#x9;&#x9;&#x9;&#x9;&#x9;&#x9;&#x9;&#x9;&#x9;c-6.55,3.71-9.83,3.93-14.42,3.28c-4.36-0.66-9.82-3.49-12.88-6.99c-2.84-3.49-5.03-9.39-5.03-13.97&#xA;&#x9;&#x9;&#x9;&#x9;&#x9;&#x9;&#x9;&#x9;&#x9;&#x9;&#x9;&#x9;C48.09,393.31,53.33,384.36,53.33,384.36z"></path>
&#x9;&#x9;&#x9;&#x9;&#x9;&#x9;&#x9;&#x9;&#x9;&#x9;</defs>
&#x9;&#x9;&#x9;&#x9;&#x9;&#x9;&#x9;&#x9;&#x9;&#x9;<clipPath id="SVGID_00000043440284755570326420000003752425780849179300_">
&#x9;&#x9;&#x9;&#x9;&#x9;&#x9;&#x9;&#x9;&#x9;&#x9;&#x9;<use xlink:href="#SVGID_00000140012753499253612800000013056384387657474477_" style="overflow:visible;"></use>
&#x9;&#x9;&#x9;&#x9;&#x9;&#x9;&#x9;&#x9;&#x9;&#x9;</clipPath>
&#x9;&#x9;&#x9;&#x9;&#x9;&#x9;&#x9;&#x9;&#x9;&#x9;<g style="clip-path:url(#SVGID_00000043440284755570326420000003752425780849179300_);">
&#x9;&#x9;&#x9;&#x9;&#x9;&#x9;&#x9;&#x9;&#x9;&#x9;&#x9;<rect x="-562.4" y="-413.6" class="st1" width="2764.8" height="1555.2"></rect>
&#x9;&#x9;&#x9;&#x9;&#x9;&#x9;&#x9;&#x9;&#x9;&#x9;</g>
&#x9;&#x9;&#x9;&#x9;&#x9;&#x9;&#x9;&#x9;&#x9;</g>
&#x9;&#x9;&#x9;&#x9;&#x9;&#x9;&#x9;&#x9;</g>
&#x9;&#x9;&#x9;&#x9;&#x9;&#x9;&#x9;</g>
&#x9;&#x9;&#x9;&#x9;&#x9;&#x9;</g>
&#x9;&#x9;&#x9;&#x9;&#x9;</g>
&#x9;&#x9;&#x9;&#x9;</g>
&#x9;&#x9;&#x9;</g>
&#x9;&#x9;</g>
&#x9;</g>
</g>
<g>
&#x9;<defs>
&#x9;&#x9;<rect id="SVGID_00000061460313101746479510000004284144946893602948_" x="1400" y="228" width="61.77" height="441.46"></rect>
&#x9;</defs>
&#x9;<clipPath id="SVGID_00000014632529449379853230000016667427600460761745_">
&#x9;&#x9;<use xlink:href="#SVGID_00000061460313101746479510000004284144946893602948_" style="overflow:visible;"></use>
&#x9;</clipPath>
&#x9;<g style="clip-path:url(#SVGID_00000014632529449379853230000016667427600460761745_);">
&#x9;&#x9;<g>
&#x9;&#x9;&#x9;<defs>
&#x9;&#x9;&#x9;&#x9;<path id="SVGID_00000085963403771266060120000015985770048874933922_" d="M1443.2,247.64c9.61,181.47,11.79,188.24,13.32,210.3&#xA;&#x9;&#x9;&#x9;&#x9;&#x9;c2.62,43.24,7.86,163.79,3.28,190.43c-1.31,7.42-2.18,10.48-5.24,13.76c-3.06,3.49-8.73,6.11-12.89,6.99&#xA;&#x9;&#x9;&#x9;&#x9;&#x9;c-3.49,0.66-6.99-0.22-10.05-1.31c-2.84-1.09-5.9-2.84-8.08-5.68c-2.62-3.28-5.02-9.17-5.24-13.76c0-4.15,2.4-9.39,4.36-12.45&#xA;&#x9;&#x9;&#x9;&#x9;&#x9;c1.31-2.19,2.62-3.49,4.81-4.59c3.06-1.74,8.52-3.93,12.67-3.49c4.15,0.22,9.39,2.62,12.45,4.81c1.96,1.53,3.06,2.84,4.36,5.02&#xA;&#x9;&#x9;&#x9;&#x9;&#x9;c1.53,3.28,3.28,8.95,2.84,13.1c-0.44,4.15-2.84,8.95-5.68,12.01c-2.84,3.06-7.64,5.46-11.57,6.11&#xA;&#x9;&#x9;&#x9;&#x9;&#x9;c-4.15,0.66-9.39-0.22-13.1-2.18c-3.71-1.97-7.43-6.55-9.17-9.61c-1.31-2.18-1.74-3.93-1.74-6.33&#xA;&#x9;&#x9;&#x9;&#x9;&#x9;c-0.22-3.71,1.31-9.83,2.84-13.1c1.09-2.18,2.18-3.49,4.36-5.02c2.84-2.19,8.08-4.59,12.23-5.03c4.15-0.22,9.61,1.97,12.89,3.71&#xA;&#x9;&#x9;&#x9;&#x9;&#x9;c2.19,1.09,3.49,2.4,4.81,4.59c1.96,3.06,4.36,8.3,4.15,12.45c0,4.58-2.18,10.48-5.24,13.76c-3.06,3.49-8.52,6.33-12.89,6.99&#xA;&#x9;&#x9;&#x9;&#x9;&#x9;c-4.58,0.44-10.7-1.09-14.41-3.49c-3.71-2.62-6.11-5.24-8.3-12.23c-8.08-25.11-1.09-147.41-3.71-190.87&#xA;&#x9;&#x9;&#x9;&#x9;&#x9;c-1.53-22.93-3.93-29.92-5.46-52.19c-3.06-39.53-13.76-141.51-7.86-165.1c1.96-6.98,4.15-9.83,7.64-12.67&#xA;&#x9;&#x9;&#x9;&#x9;&#x9;c3.71-2.84,9.61-4.58,14.2-4.36c4.37,0.22,10.05,2.84,13.32,6.11C1440.36,237.59,1443.2,247.64,1443.2,247.64z"></path>
&#x9;&#x9;&#x9;</defs>
&#x9;&#x9;&#x9;<clipPath id="SVGID_00000089542233158485436430000016582430865561309608_">
&#x9;&#x9;&#x9;&#x9;<use xlink:href="#SVGID_00000085963403771266060120000015985770048874933922_" style="overflow:visible;"></use>
&#x9;&#x9;&#x9;</clipPath>
&#x9;&#x9;&#x9;<g style="clip-path:url(#SVGID_00000089542233158485436430000016582430865561309608_);">
&#x9;&#x9;&#x9;&#x9;<g transform="matrix(1, 0, 0, 1, 1050, 171)">
&#x9;&#x9;&#x9;&#x9;&#x9;<g>
&#x9;&#x9;&#x9;&#x9;&#x9;&#x9;<defs>
&#x9;&#x9;&#x9;&#x9;&#x9;&#x9;&#x9;<rect id="SVGID_00000040554829235937620380000018250595817594113718_" x="350" y="57" width="62.67" height="442.67"></rect>
&#x9;&#x9;&#x9;&#x9;&#x9;&#x9;</defs>
&#x9;&#x9;&#x9;&#x9;&#x9;&#x9;<clipPath id="SVGID_00000049217233241510020950000014381726102514798500_">
&#x9;&#x9;&#x9;&#x9;&#x9;&#x9;&#x9;<use xlink:href="#SVGID_00000040554829235937620380000018250595817594113718_" style="overflow:visible;"></use>
&#x9;&#x9;&#x9;&#x9;&#x9;&#x9;</clipPath>
&#x9;&#x9;&#x9;&#x9;&#x9;&#x9;<g style="clip-path:url(#SVGID_00000049217233241510020950000014381726102514798500_);">
&#x9;&#x9;&#x9;&#x9;&#x9;&#x9;&#x9;<g>
&#x9;&#x9;&#x9;&#x9;&#x9;&#x9;&#x9;&#x9;<defs>
&#x9;&#x9;&#x9;&#x9;&#x9;&#x9;&#x9;&#x9;&#x9;<rect id="SVGID_00000178905088009489131760000003754279272349900176_" x="350" y="57" width="61.77" height="441.46"></rect>
&#x9;&#x9;&#x9;&#x9;&#x9;&#x9;&#x9;&#x9;</defs>
&#x9;&#x9;&#x9;&#x9;&#x9;&#x9;&#x9;&#x9;<clipPath id="SVGID_00000052790766889234077420000009213472360923066020_">
&#x9;&#x9;&#x9;&#x9;&#x9;&#x9;&#x9;&#x9;&#x9;<use xlink:href="#SVGID_00000178905088009489131760000003754279272349900176_" style="overflow:visible;"></use>
&#x9;&#x9;&#x9;&#x9;&#x9;&#x9;&#x9;&#x9;</clipPath>
&#x9;&#x9;&#x9;&#x9;&#x9;&#x9;&#x9;&#x9;<g style="clip-path:url(#SVGID_00000052790766889234077420000009213472360923066020_);">
&#x9;&#x9;&#x9;&#x9;&#x9;&#x9;&#x9;&#x9;&#x9;<g>
&#x9;&#x9;&#x9;&#x9;&#x9;&#x9;&#x9;&#x9;&#x9;&#x9;<defs>
&#x9;&#x9;&#x9;&#x9;&#x9;&#x9;&#x9;&#x9;&#x9;&#x9;&#x9;<path id="SVGID_00000029034483020737103040000005518746599340195979_" d="M393.2,76.64&#xA;&#x9;&#x9;&#x9;&#x9;&#x9;&#x9;&#x9;&#x9;&#x9;&#x9;&#x9;&#x9;c9.61,181.47,11.79,188.24,13.32,210.3c2.62,43.24,7.86,163.79,3.28,190.43c-1.31,7.42-2.18,10.48-5.24,13.76&#xA;&#x9;&#x9;&#x9;&#x9;&#x9;&#x9;&#x9;&#x9;&#x9;&#x9;&#x9;&#x9;c-3.06,3.49-8.73,6.11-12.89,6.99c-3.49,0.66-6.99-0.22-10.05-1.31c-2.84-1.09-5.9-2.84-8.08-5.68&#xA;&#x9;&#x9;&#x9;&#x9;&#x9;&#x9;&#x9;&#x9;&#x9;&#x9;&#x9;&#x9;c-2.62-3.28-5.02-9.17-5.24-13.76c0-4.15,2.4-9.39,4.36-12.45c1.31-2.19,2.62-3.49,4.81-4.59&#xA;&#x9;&#x9;&#x9;&#x9;&#x9;&#x9;&#x9;&#x9;&#x9;&#x9;&#x9;&#x9;c3.06-1.74,8.52-3.93,12.67-3.49c4.15,0.22,9.39,2.62,12.45,4.81c1.96,1.53,3.06,2.84,4.36,5.02&#xA;&#x9;&#x9;&#x9;&#x9;&#x9;&#x9;&#x9;&#x9;&#x9;&#x9;&#x9;&#x9;c1.53,3.28,3.28,8.95,2.84,13.1s-2.84,8.95-5.68,12.01c-2.84,3.06-7.64,5.46-11.57,6.11c-4.15,0.66-9.39-0.22-13.1-2.18&#xA;&#x9;&#x9;&#x9;&#x9;&#x9;&#x9;&#x9;&#x9;&#x9;&#x9;&#x9;&#x9;c-3.71-1.97-7.43-6.55-9.17-9.61c-1.31-2.18-1.74-3.93-1.74-6.33c-0.22-3.71,1.31-9.83,2.84-13.1&#xA;&#x9;&#x9;&#x9;&#x9;&#x9;&#x9;&#x9;&#x9;&#x9;&#x9;&#x9;&#x9;c1.09-2.18,2.18-3.49,4.36-5.02c2.84-2.19,8.08-4.59,12.23-5.03c4.15-0.22,9.61,1.97,12.89,3.71&#xA;&#x9;&#x9;&#x9;&#x9;&#x9;&#x9;&#x9;&#x9;&#x9;&#x9;&#x9;&#x9;c2.19,1.09,3.49,2.4,4.81,4.59c1.96,3.06,4.36,8.3,4.15,12.45c0,4.58-2.18,10.48-5.24,13.76&#xA;&#x9;&#x9;&#x9;&#x9;&#x9;&#x9;&#x9;&#x9;&#x9;&#x9;&#x9;&#x9;c-3.06,3.49-8.52,6.33-12.89,6.99c-4.58,0.44-10.7-1.09-14.41-3.49c-3.71-2.62-6.11-5.24-8.3-12.23&#xA;&#x9;&#x9;&#x9;&#x9;&#x9;&#x9;&#x9;&#x9;&#x9;&#x9;&#x9;&#x9;c-8.08-25.11-1.09-147.41-3.71-190.87c-1.53-22.93-3.93-29.92-5.46-52.19c-3.06-39.53-13.76-141.51-7.86-165.1&#xA;&#x9;&#x9;&#x9;&#x9;&#x9;&#x9;&#x9;&#x9;&#x9;&#x9;&#x9;&#x9;c1.96-6.98,4.15-9.83,7.64-12.67c3.71-2.84,9.61-4.58,14.2-4.36c4.37,0.22,10.05,2.84,13.32,6.11&#xA;&#x9;&#x9;&#x9;&#x9;&#x9;&#x9;&#x9;&#x9;&#x9;&#x9;&#x9;&#x9;C390.36,66.59,393.2,76.64,393.2,76.64z"></path>
&#x9;&#x9;&#x9;&#x9;&#x9;&#x9;&#x9;&#x9;&#x9;&#x9;</defs>
&#x9;&#x9;&#x9;&#x9;&#x9;&#x9;&#x9;&#x9;&#x9;&#x9;<clipPath id="SVGID_00000098910268487950829680000008466213887758373802_">
&#x9;&#x9;&#x9;&#x9;&#x9;&#x9;&#x9;&#x9;&#x9;&#x9;&#x9;<use xlink:href="#SVGID_00000029034483020737103040000005518746599340195979_" style="overflow:visible;"></use>
&#x9;&#x9;&#x9;&#x9;&#x9;&#x9;&#x9;&#x9;&#x9;&#x9;</clipPath>
&#x9;&#x9;&#x9;&#x9;&#x9;&#x9;&#x9;&#x9;&#x9;&#x9;<g style="clip-path:url(#SVGID_00000098910268487950829680000008466213887758373802_);">
&#x9;&#x9;&#x9;&#x9;&#x9;&#x9;&#x9;&#x9;&#x9;&#x9;&#x9;<rect x="-1472.4" y="-408.6" class="st1" width="2764.8" height="1555.2"></rect>
&#x9;&#x9;&#x9;&#x9;&#x9;&#x9;&#x9;&#x9;&#x9;&#x9;</g>
&#x9;&#x9;&#x9;&#x9;&#x9;&#x9;&#x9;&#x9;&#x9;</g>
&#x9;&#x9;&#x9;&#x9;&#x9;&#x9;&#x9;&#x9;</g>
&#x9;&#x9;&#x9;&#x9;&#x9;&#x9;&#x9;</g>
&#x9;&#x9;&#x9;&#x9;&#x9;&#x9;</g>
&#x9;&#x9;&#x9;&#x9;&#x9;</g>
&#x9;&#x9;&#x9;&#x9;</g>
&#x9;&#x9;&#x9;</g>
&#x9;&#x9;</g>
&#x9;</g>
</g>
<g>
&#x9;<defs>
&#x9;&#x9;<rect id="SVGID_00000034775086237088840840000011629392626803551127_" x="401.33" y="141.33" width="178.67" height="574.67"></rect>
&#x9;</defs>
&#x9;<clipPath id="SVGID_00000067958356964691993690000005065677369176325265_">
&#x9;&#x9;<use xlink:href="#SVGID_00000034775086237088840840000011629392626803551127_" style="overflow:visible;"></use>
&#x9;</clipPath>
&#x9;<g style="clip-path:url(#SVGID_00000067958356964691993690000005065677369176325265_);">
&#x9;&#x9;<g>
&#x9;&#x9;&#x9;<defs>
&#x9;&#x9;&#x9;&#x9;
&#x9;&#x9;&#x9;&#x9;&#x9;<rect id="SVGID_00000060028085003775826510000002189581116715313071_" x="195.3" y="369.59" transform="matrix(0.1449 -0.9894 0.9894 0.1449 -7.9689 847.2559)" width="581.78" height="117.3"></rect>
&#x9;&#x9;&#x9;</defs>
&#x9;&#x9;&#x9;<clipPath id="SVGID_00000061457682833923756120000010841533003754309262_">
&#x9;&#x9;&#x9;&#x9;<use xlink:href="#SVGID_00000060028085003775826510000002189581116715313071_" style="overflow:visible;"></use>
&#x9;&#x9;&#x9;</clipPath>
&#x9;&#x9;&#x9;<g style="clip-path:url(#SVGID_00000061457682833923756120000010841533003754309262_);">
&#x9;&#x9;&#x9;&#x9;<g>
&#x9;&#x9;&#x9;&#x9;&#x9;<defs>
&#x9;&#x9;&#x9;&#x9;&#x9;&#x9;<path id="SVGID_00000103952874663174004260000017209205234794169271_" d="M402.07,682.48c3.15-114.35,9.09-148.6,15-182.54&#xA;&#x9;&#x9;&#x9;&#x9;&#x9;&#x9;&#x9;c6.23-36.17,13.67-77.36,22.69-110.19c7.18-26.59,16.67-43.42,24.63-72.18c10.65-40.72,17.54-126.23,27.74-151.08&#xA;&#x9;&#x9;&#x9;&#x9;&#x9;&#x9;&#x9;c4.1-8.83,5.68-13.16,11.88-17.12c5.75-4.04,17.37-6.56,24.53-7.47c5.23-0.53,8.95-0.31,14.37,1.13&#xA;&#x9;&#x9;&#x9;&#x9;&#x9;&#x9;&#x9;c7.25,1.71,18.35,5.94,24.67,10.77c6.28,5.15,10.81,12.64,11.8,18.64c0.95,6.32-2.56,14.26-5.59,19.02&#xA;&#x9;&#x9;&#x9;&#x9;&#x9;&#x9;&#x9;c-2.35,3.23-4.93,4.81-9.43,6.75c-6.02,2.7-16.77,5.68-25.63,5.35c-8.91,0-20.51-3.98-27.11-6.9&#xA;&#x9;&#x9;&#x9;&#x9;&#x9;&#x9;&#x9;c-4.81-2.33-7.33-4.33-10.59-7.73c-3.98-4.81-8.28-13.9-8.91-19.19c-0.36-3.95,0.02-6.5,2.36-9.73&#xA;&#x9;&#x9;&#x9;&#x9;&#x9;&#x9;&#x9;c2.54-4.51,9.16-11.34,16.65-14.48c7.44-2.81,17.96-4.2,26.72-3.24c9.23,1.03,20.28,5.57,26.33,9.06&#xA;&#x9;&#x9;&#x9;&#x9;&#x9;&#x9;&#x9;c4.31,2.58,6.83,4.58,9.11,8.17c3.48,5.06,5.53,10.24,6.02,19.74c1.83,25.96-15.33,104.76-25.75,143.89&#xA;&#x9;&#x9;&#x9;&#x9;&#x9;&#x9;&#x9;c-7.41,28.19-17.54,42.97-25.41,71.09c-11.06,40.34-22,108.66-28.74,148.33c-4.42,26.99-6.89,43.87-8.96,67.64&#xA;&#x9;&#x9;&#x9;&#x9;&#x9;&#x9;&#x9;c-2.03,26.7,5.54,67.81-2.07,84.59c-3.6,8.58-9.03,13.64-17.03,17.02c-7.54,3.45-19.93,4.89-29.57,3.47&#xA;&#x9;&#x9;&#x9;&#x9;&#x9;&#x9;&#x9;c-9.68-1.09-21.6-6.09-28.3-11.62C407.27,698.2,402.07,682.48,402.07,682.48z"></path>
&#x9;&#x9;&#x9;&#x9;&#x9;</defs>
&#x9;&#x9;&#x9;&#x9;&#x9;<clipPath id="SVGID_00000004527229616238038460000015824309826325049514_">
&#x9;&#x9;&#x9;&#x9;&#x9;&#x9;<use xlink:href="#SVGID_00000103952874663174004260000017209205234794169271_" style="overflow:visible;"></use>
&#x9;&#x9;&#x9;&#x9;&#x9;</clipPath>
&#x9;&#x9;&#x9;&#x9;&#x9;<g style="clip-path:url(#SVGID_00000004527229616238038460000015824309826325049514_);">
&#x9;&#x9;&#x9;&#x9;&#x9;&#x9;<g transform="matrix(1, 0, 0, 1, 301, 106)">
&#x9;&#x9;&#x9;&#x9;&#x9;&#x9;&#x9;<g>
&#x9;&#x9;&#x9;&#x9;&#x9;&#x9;&#x9;&#x9;<defs>
&#x9;&#x9;&#x9;&#x9;&#x9;&#x9;&#x9;&#x9;&#x9;
&#x9;&#x9;&#x9;&#x9;&#x9;&#x9;&#x9;&#x9;&#x9;&#x9;<rect id="SVGID_00000014594154167343303690000008827929065675618236_" x="100.33" y="35.33" width="178.67" height="574.67"></rect>
&#x9;&#x9;&#x9;&#x9;&#x9;&#x9;&#x9;&#x9;</defs>
&#x9;&#x9;&#x9;&#x9;&#x9;&#x9;&#x9;&#x9;<clipPath id="SVGID_00000150070043958791380410000015019672800346842046_">
&#x9;&#x9;&#x9;&#x9;&#x9;&#x9;&#x9;&#x9;&#x9;<use xlink:href="#SVGID_00000014594154167343303690000008827929065675618236_" style="overflow:visible;"></use>
&#x9;&#x9;&#x9;&#x9;&#x9;&#x9;&#x9;&#x9;</clipPath>
&#x9;&#x9;&#x9;&#x9;&#x9;&#x9;&#x9;&#x9;<g style="clip-path:url(#SVGID_00000150070043958791380410000015019672800346842046_);">
&#x9;&#x9;&#x9;&#x9;&#x9;&#x9;&#x9;&#x9;&#x9;<g>
&#x9;&#x9;&#x9;&#x9;&#x9;&#x9;&#x9;&#x9;&#x9;&#x9;<defs>
&#x9;&#x9;&#x9;&#x9;&#x9;&#x9;&#x9;&#x9;&#x9;&#x9;&#x9;
&#x9;&#x9;&#x9;&#x9;&#x9;&#x9;&#x9;&#x9;&#x9;&#x9;&#x9;&#x9;<rect id="SVGID_00000005953386796748651660000002526870227733074362_" x="100.92" y="35.33" width="178.08" height="574.67"></rect>
&#x9;&#x9;&#x9;&#x9;&#x9;&#x9;&#x9;&#x9;&#x9;&#x9;</defs>
&#x9;&#x9;&#x9;&#x9;&#x9;&#x9;&#x9;&#x9;&#x9;&#x9;<clipPath id="SVGID_00000118379705149496203870000001704647541030225595_">
&#x9;&#x9;&#x9;&#x9;&#x9;&#x9;&#x9;&#x9;&#x9;&#x9;&#x9;<use xlink:href="#SVGID_00000005953386796748651660000002526870227733074362_" style="overflow:visible;"></use>
&#x9;&#x9;&#x9;&#x9;&#x9;&#x9;&#x9;&#x9;&#x9;&#x9;</clipPath>
&#x9;&#x9;&#x9;&#x9;&#x9;&#x9;&#x9;&#x9;&#x9;&#x9;<g style="clip-path:url(#SVGID_00000118379705149496203870000001704647541030225595_);">
&#x9;&#x9;&#x9;&#x9;&#x9;&#x9;&#x9;&#x9;&#x9;&#x9;&#x9;<g>
&#x9;&#x9;&#x9;&#x9;&#x9;&#x9;&#x9;&#x9;&#x9;&#x9;&#x9;&#x9;<defs>
&#x9;&#x9;&#x9;&#x9;&#x9;&#x9;&#x9;&#x9;&#x9;&#x9;&#x9;&#x9;&#x9;
&#x9;&#x9;&#x9;&#x9;&#x9;&#x9;&#x9;&#x9;&#x9;&#x9;&#x9;&#x9;&#x9;&#x9;<rect id="SVGID_00000173875316836988456410000016778351863854166424_" x="-105.7" y="263.59" transform="matrix(0.1449 -0.9894 0.9894 0.1449 -160.4793 458.7885)" width="581.78" height="117.3"></rect>
&#x9;&#x9;&#x9;&#x9;&#x9;&#x9;&#x9;&#x9;&#x9;&#x9;&#x9;&#x9;</defs>
&#x9;&#x9;&#x9;&#x9;&#x9;&#x9;&#x9;&#x9;&#x9;&#x9;&#x9;&#x9;<clipPath id="SVGID_00000148626861613055705860000013970448732250245550_">
&#x9;&#x9;&#x9;&#x9;&#x9;&#x9;&#x9;&#x9;&#x9;&#x9;&#x9;&#x9;&#x9;<use xlink:href="#SVGID_00000173875316836988456410000016778351863854166424_" style="overflow:visible;"></use>
&#x9;&#x9;&#x9;&#x9;&#x9;&#x9;&#x9;&#x9;&#x9;&#x9;&#x9;&#x9;</clipPath>
&#x9;&#x9;&#x9;&#x9;&#x9;&#x9;&#x9;&#x9;&#x9;&#x9;&#x9;&#x9;<g style="clip-path:url(#SVGID_00000148626861613055705860000013970448732250245550_);">
&#x9;&#x9;&#x9;&#x9;&#x9;&#x9;&#x9;&#x9;&#x9;&#x9;&#x9;&#x9;&#x9;<g>
&#x9;&#x9;&#x9;&#x9;&#x9;&#x9;&#x9;&#x9;&#x9;&#x9;&#x9;&#x9;&#x9;&#x9;<defs>
&#x9;&#x9;&#x9;&#x9;&#x9;&#x9;&#x9;&#x9;&#x9;&#x9;&#x9;&#x9;&#x9;&#x9;&#x9;<path id="SVGID_00000103260968251953219460000010425000785710379170_" d="M101.07,576.48&#xA;&#x9;&#x9;&#x9;&#x9;&#x9;&#x9;&#x9;&#x9;&#x9;&#x9;&#x9;&#x9;&#x9;&#x9;&#x9;&#x9;c3.15-114.35,9.09-148.6,15-182.54c6.23-36.17,13.67-77.36,22.69-110.19c7.18-26.59,16.67-43.42,24.63-72.18&#xA;&#x9;&#x9;&#x9;&#x9;&#x9;&#x9;&#x9;&#x9;&#x9;&#x9;&#x9;&#x9;&#x9;&#x9;&#x9;&#x9;c10.65-40.72,17.54-126.23,27.74-151.08c4.1-8.83,5.68-13.16,11.88-17.12c5.75-4.04,17.37-6.56,24.53-7.47&#xA;&#x9;&#x9;&#x9;&#x9;&#x9;&#x9;&#x9;&#x9;&#x9;&#x9;&#x9;&#x9;&#x9;&#x9;&#x9;&#x9;c5.23-0.53,8.95-0.31,14.37,1.13c7.25,1.71,18.35,5.94,24.67,10.77c6.28,5.15,10.81,12.64,11.8,18.64&#xA;&#x9;&#x9;&#x9;&#x9;&#x9;&#x9;&#x9;&#x9;&#x9;&#x9;&#x9;&#x9;&#x9;&#x9;&#x9;&#x9;c0.95,6.32-2.56,14.26-5.59,19.02c-2.35,3.23-4.93,4.81-9.43,6.75c-6.02,2.7-16.77,5.68-25.63,5.35&#xA;&#x9;&#x9;&#x9;&#x9;&#x9;&#x9;&#x9;&#x9;&#x9;&#x9;&#x9;&#x9;&#x9;&#x9;&#x9;&#x9;c-8.91,0-20.51-3.98-27.11-6.9c-4.81-2.33-7.33-4.33-10.59-7.73c-3.98-4.81-8.28-13.9-8.91-19.19&#xA;&#x9;&#x9;&#x9;&#x9;&#x9;&#x9;&#x9;&#x9;&#x9;&#x9;&#x9;&#x9;&#x9;&#x9;&#x9;&#x9;c-0.36-3.95,0.02-6.5,2.36-9.73c2.54-4.51,9.16-11.34,16.65-14.48c7.44-2.81,17.96-4.2,26.72-3.24&#xA;&#x9;&#x9;&#x9;&#x9;&#x9;&#x9;&#x9;&#x9;&#x9;&#x9;&#x9;&#x9;&#x9;&#x9;&#x9;&#x9;c9.23,1.03,20.28,5.57,26.33,9.06c4.31,2.58,6.83,4.58,9.11,8.17c3.48,5.06,5.53,10.24,6.02,19.74&#xA;&#x9;&#x9;&#x9;&#x9;&#x9;&#x9;&#x9;&#x9;&#x9;&#x9;&#x9;&#x9;&#x9;&#x9;&#x9;&#x9;c1.83,25.96-15.33,104.76-25.75,143.89c-7.41,28.19-17.54,42.97-25.41,71.09c-11.06,40.34-22,108.66-28.74,148.33&#xA;&#x9;&#x9;&#x9;&#x9;&#x9;&#x9;&#x9;&#x9;&#x9;&#x9;&#x9;&#x9;&#x9;&#x9;&#x9;&#x9;c-4.42,26.99-6.89,43.87-8.96,67.64c-2.03,26.7,5.54,67.81-2.07,84.59c-3.6,8.58-9.03,13.64-17.03,17.02&#xA;&#x9;&#x9;&#x9;&#x9;&#x9;&#x9;&#x9;&#x9;&#x9;&#x9;&#x9;&#x9;&#x9;&#x9;&#x9;&#x9;c-7.54,3.45-19.93,4.89-29.57,3.47c-9.68-1.09-21.6-6.09-28.3-11.62C106.27,592.2,101.07,576.48,101.07,576.48z"></path>
&#x9;&#x9;&#x9;&#x9;&#x9;&#x9;&#x9;&#x9;&#x9;&#x9;&#x9;&#x9;&#x9;&#x9;</defs>
&#x9;&#x9;&#x9;&#x9;&#x9;&#x9;&#x9;&#x9;&#x9;&#x9;&#x9;&#x9;&#x9;&#x9;<clipPath id="SVGID_00000039826635336250850450000002868776820442151066_">
&#x9;&#x9;&#x9;&#x9;&#x9;&#x9;&#x9;&#x9;&#x9;&#x9;&#x9;&#x9;&#x9;&#x9;&#x9;<use xlink:href="#SVGID_00000103260968251953219460000010425000785710379170_" style="overflow:visible;"></use>
&#x9;&#x9;&#x9;&#x9;&#x9;&#x9;&#x9;&#x9;&#x9;&#x9;&#x9;&#x9;&#x9;&#x9;</clipPath>
&#x9;&#x9;&#x9;&#x9;&#x9;&#x9;&#x9;&#x9;&#x9;&#x9;&#x9;&#x9;&#x9;&#x9;<g style="clip-path:url(#SVGID_00000039826635336250850450000002868776820442151066_);">
&#x9;&#x9;&#x9;&#x9;&#x9;&#x9;&#x9;&#x9;&#x9;&#x9;&#x9;&#x9;&#x9;&#x9;&#x9;<path class="st1" d="M215.11,633.18L65.05,611.21l87.88-600.26l150.06,21.97L215.11,633.18z"></path>
&#x9;&#x9;&#x9;&#x9;&#x9;&#x9;&#x9;&#x9;&#x9;&#x9;&#x9;&#x9;&#x9;&#x9;</g>
&#x9;&#x9;&#x9;&#x9;&#x9;&#x9;&#x9;&#x9;&#x9;&#x9;&#x9;&#x9;&#x9;</g>
&#x9;&#x9;&#x9;&#x9;&#x9;&#x9;&#x9;&#x9;&#x9;&#x9;&#x9;&#x9;</g>
&#x9;&#x9;&#x9;&#x9;&#x9;&#x9;&#x9;&#x9;&#x9;&#x9;&#x9;</g>
&#x9;&#x9;&#x9;&#x9;&#x9;&#x9;&#x9;&#x9;&#x9;&#x9;</g>
&#x9;&#x9;&#x9;&#x9;&#x9;&#x9;&#x9;&#x9;&#x9;</g>
&#x9;&#x9;&#x9;&#x9;&#x9;&#x9;&#x9;&#x9;</g>
&#x9;&#x9;&#x9;&#x9;&#x9;&#x9;&#x9;</g>
&#x9;&#x9;&#x9;&#x9;&#x9;&#x9;</g>
&#x9;&#x9;&#x9;&#x9;&#x9;</g>
&#x9;&#x9;&#x9;&#x9;</g>
&#x9;&#x9;&#x9;</g>
&#x9;&#x9;</g>
&#x9;</g>
</g>
<g>
&#x9;<g transform="translate(412.862146, 308.336664)">
&#x9;&#x9;<g>
&#x9;&#x9;&#x9;<path class="st1" d="M163.22,103.76c-4.53,0-8.6-0.95-12.23-2.83c-3.62-1.9-6.47-4.55-8.52-7.94c-2.06-3.4-3.08-7.26-3.08-11.58&#xA;&#x9;&#x9;&#x9;&#x9;c0-4.32,1.03-8.18,3.08-11.58c2.05-3.4,4.9-6.05,8.52-7.94c3.62-1.89,7.7-2.83,12.23-2.83c4.15,0,7.85,0.74,11.1,2.21&#xA;&#x9;&#x9;&#x9;&#x9;c3.26,1.46,5.95,3.57,8.06,6.33l-9.1,8.12c-2.64-3.33-5.75-5-9.33-5c-3.02,0-5.44,0.97-7.27,2.9c-1.83,1.93-2.75,4.53-2.75,7.79&#xA;&#x9;&#x9;&#x9;&#x9;c0,3.25,0.92,5.85,2.75,7.79c1.83,1.93,4.26,2.9,7.27,2.9c3.58,0,6.69-1.67,9.33-5.02l9.1,8.12c-2.11,2.78-4.8,4.91-8.06,6.38&#xA;&#x9;&#x9;&#x9;&#x9;C171.08,103.03,167.38,103.76,163.22,103.76z"></path>
&#x9;&#x9;</g>
&#x9;</g>
</g>
<g>
&#x9;<g transform="translate(450.93008, 308.336664)">
&#x9;&#x9;<g>
&#x9;&#x9;&#x9;<path class="st1" d="M153.79,60.03h14.42v42.75h-14.42V60.03z"></path>
&#x9;&#x9;</g>
&#x9;</g>
</g>
<g>
&#x9;<g transform="translate(470.949435, 308.336664)">
&#x9;&#x9;<g>
&#x9;&#x9;&#x9;<path class="st1" d="M182.59,103.76c-4.53,0-8.6-0.95-12.23-2.83c-3.62-1.9-6.47-4.55-8.52-7.94c-2.06-3.4-3.08-7.26-3.08-11.58&#xA;&#x9;&#x9;&#x9;&#x9;c0-4.32,1.03-8.18,3.08-11.58c2.05-3.4,4.9-6.05,8.52-7.94c3.62-1.89,7.7-2.83,12.23-2.83c4.15,0,7.85,0.74,11.1,2.21&#xA;&#x9;&#x9;&#x9;&#x9;c3.26,1.46,5.95,3.57,8.06,6.33l-9.1,8.12c-2.64-3.33-5.75-5-9.33-5c-3.02,0-5.44,0.97-7.27,2.9c-1.83,1.93-2.75,4.53-2.75,7.79&#xA;&#x9;&#x9;&#x9;&#x9;c0,3.25,0.92,5.85,2.75,7.79c1.83,1.93,4.26,2.9,7.27,2.9c3.58,0,6.69-1.67,9.33-5.02l9.1,8.12c-2.11,2.78-4.8,4.91-8.06,6.38&#xA;&#x9;&#x9;&#x9;&#x9;C190.44,103.03,186.74,103.76,182.59,103.76z"></path>
&#x9;&#x9;</g>
&#x9;</g>
</g>
<g>
&#x9;<g transform="translate(509.017369, 308.336664)">
&#x9;&#x9;<g>
&#x9;&#x9;&#x9;<path class="st1" d="M173.15,60.03h14.42v31.56h19.31v11.19h-33.73V60.03z"></path>
&#x9;&#x9;</g>
&#x9;</g>
</g>
<g>
&#x9;<g transform="translate(540.809432, 308.336664)">
&#x9;&#x9;<g>
&#x9;&#x9;&#x9;<path class="st1" d="M206.17,103.76c-4.6,0-8.73-0.96-12.4-2.88c-3.67-1.92-6.54-4.57-8.62-7.96c-2.07-3.4-3.1-7.24-3.1-11.52&#xA;&#x9;&#x9;&#x9;&#x9;c0-4.28,1.03-8.11,3.1-11.52c2.08-3.4,4.96-6.05,8.62-7.96c3.67-1.92,7.8-2.88,12.4-2.88c4.59,0,8.73,0.96,12.4,2.88&#xA;&#x9;&#x9;&#x9;&#x9;c3.67,1.91,6.53,4.56,8.6,7.96c2.08,3.41,3.12,7.24,3.12,11.52c0,4.28-1.04,8.12-3.12,11.52c-2.07,3.39-4.94,6.04-8.6,7.96&#xA;&#x9;&#x9;&#x9;&#x9;C214.89,102.8,210.76,103.76,206.17,103.76z M206.17,92.09c1.79,0,3.41-0.44,4.85-1.31c1.44-0.88,2.59-2.11,3.44-3.73&#xA;&#x9;&#x9;&#x9;&#x9;c0.86-1.61,1.29-3.49,1.29-5.65c0-2.17-0.43-4.05-1.29-5.65c-0.85-1.61-1.99-2.85-3.44-3.73c-1.45-0.88-3.06-1.31-4.85-1.31&#xA;&#x9;&#x9;&#x9;&#x9;c-1.79,0-3.41,0.44-4.85,1.31c-1.45,0.88-2.6,2.12-3.46,3.73c-0.85,1.6-1.27,3.48-1.27,5.65c0,2.16,0.42,4.04,1.27,5.65&#xA;&#x9;&#x9;&#x9;&#x9;c0.86,1.61,2.01,2.85,3.46,3.73C202.75,91.65,204.37,92.09,206.17,92.09z"></path>
&#x9;&#x9;</g>
&#x9;</g>
</g>
<g>
&#x9;<g transform="translate(583.64145, 308.336664)">
&#x9;</g>
</g>
<g>
&#x9;<g transform="translate(601.370384, 308.336664)">
&#x9;&#x9;<g>
&#x9;&#x9;&#x9;<path class="st1" d="M203.94,60.03h21.08c4.76,0,8.96,0.87,12.6,2.6c3.65,1.72,6.48,4.2,8.5,7.42c2.01,3.21,3.02,6.99,3.02,11.35&#xA;&#x9;&#x9;&#x9;&#x9;c0,4.36-1.01,8.16-3.02,11.38c-2.02,3.21-4.85,5.68-8.5,7.42c-3.64,1.72-7.84,2.58-12.6,2.58h-21.08V60.03z M224.39,91.55&#xA;&#x9;&#x9;&#x9;&#x9;c3.09,0,5.57-0.89,7.42-2.67c1.86-1.78,2.79-4.27,2.79-7.48c0-3.22-0.93-5.71-2.79-7.48c-1.85-1.78-4.32-2.67-7.42-2.67h-6.04&#xA;&#x9;&#x9;&#x9;&#x9;v20.29H224.39z"></path>
&#x9;&#x9;</g>
&#x9;</g>
</g>
<g>
&#x9;<g transform="translate(643.194624, 308.336664)">
&#x9;&#x9;<g>
&#x9;&#x9;&#x9;<path class="st1" d="M253.44,91.9v10.88h-35.56V60.03h34.75v10.85h-20.58v5.02h18.08v10.38h-18.08v5.62H253.44z"></path>
&#x9;&#x9;</g>
&#x9;</g>
</g>
<g>
&#x9;<g transform="translate(678.010136, 308.336664)">
&#x9;</g>
</g>
<g>
&#x9;<g transform="translate(695.73907, 308.336664)">
&#x9;&#x9;<g>
&#x9;&#x9;&#x9;<path class="st1" d="M249.81,70.88v7.33h17.83v10.88h-17.83v13.69h-14.42V60.03h34.75v10.85H249.81z"></path>
&#x9;&#x9;</g>
&#x9;</g>
</g>
<g>
&#x9;<g transform="translate(728.997064, 308.336664)">
&#x9;&#x9;<g>
&#x9;&#x9;&#x9;<path class="st1" d="M268.89,103.76c-4.6,0-8.73-0.96-12.4-2.88c-3.67-1.92-6.54-4.57-8.62-7.96c-2.07-3.4-3.1-7.24-3.1-11.52&#xA;&#x9;&#x9;&#x9;&#x9;c0-4.28,1.03-8.11,3.1-11.52c2.08-3.4,4.96-6.05,8.62-7.96c3.67-1.92,7.8-2.88,12.4-2.88c4.59,0,8.73,0.96,12.4,2.88&#xA;&#x9;&#x9;&#x9;&#x9;c3.67,1.91,6.53,4.56,8.6,7.96c2.08,3.41,3.12,7.24,3.12,11.52c0,4.28-1.04,8.12-3.12,11.52c-2.07,3.39-4.94,6.04-8.6,7.96&#xA;&#x9;&#x9;&#x9;&#x9;C277.62,102.8,273.49,103.76,268.89,103.76z M268.89,92.09c1.79,0,3.41-0.44,4.85-1.31c1.44-0.88,2.59-2.11,3.44-3.73&#xA;&#x9;&#x9;&#x9;&#x9;c0.86-1.61,1.29-3.49,1.29-5.65c0-2.17-0.43-4.05-1.29-5.65c-0.85-1.61-1.99-2.85-3.44-3.73c-1.45-0.88-3.06-1.31-4.85-1.31&#xA;&#x9;&#x9;&#x9;&#x9;c-1.79,0-3.41,0.44-4.85,1.31c-1.45,0.88-2.6,2.12-3.46,3.73c-0.85,1.6-1.27,3.48-1.27,5.65c0,2.16,0.42,4.04,1.27,5.65&#xA;&#x9;&#x9;&#x9;&#x9;c0.86,1.61,2.01,2.85,3.46,3.73C265.48,91.65,267.1,92.09,268.89,92.09z"></path>
&#x9;&#x9;</g>
&#x9;</g>
</g>
<g>
&#x9;<g transform="translate(771.82907, 308.336664)">
&#x9;&#x9;<g>
&#x9;&#x9;&#x9;<path class="st1" d="M279.09,92.03h-3.92v10.75h-14.42V60.03h20.58c3.96,0,7.4,0.66,10.33,1.96c2.93,1.29,5.19,3.16,6.77,5.6&#xA;&#x9;&#x9;&#x9;&#x9;c1.59,2.45,2.4,5.3,2.4,8.56c0,3.06-0.7,5.72-2.08,8c-1.39,2.28-3.39,4.09-6,5.44l9,13.19h-15.4L279.09,92.03z M286.3,76.15&#xA;&#x9;&#x9;&#x9;&#x9;c0-1.59-0.49-2.83-1.48-3.71c-0.97-0.88-2.44-1.31-4.4-1.31h-5.25v10.02h5.25c1.96,0,3.42-0.44,4.4-1.31&#xA;&#x9;&#x9;&#x9;&#x9;C285.8,78.97,286.3,77.74,286.3,76.15z"></path>
&#x9;&#x9;</g>
&#x9;</g>
</g>
<g>
&#x9;<g transform="translate(809.942815, 308.336664)">
&#x9;&#x9;<g>
&#x9;&#x9;&#x9;<path class="st1" d="M311.65,102.78l-0.12-19.48l-9.29,15.62h-6.35l-9.27-14.96v18.81h-13.15V60.03h11.85l13.92,22.77&#xA;&#x9;&#x9;&#x9;&#x9;l13.56-22.77h11.85l0.12,42.75H311.65z"></path>
&#x9;&#x9;</g>
&#x9;</g>
</g>
<g>
&#x9;<g transform="translate(857.630526, 308.336664)">
&#x9;&#x9;<g>
&#x9;&#x9;&#x9;<path class="st1" d="M318.5,95.32h-16.25l-2.88,7.46h-14.67l18.69-42.75h14.19l18.69,42.75h-14.92L318.5,95.32z M314.52,84.95&#xA;&#x9;&#x9;&#x9;&#x9;l-4.15-10.75l-4.17,10.75H314.52z"></path>
&#x9;&#x9;</g>
&#x9;</g>
</g>
<g>
&#x9;<g transform="translate(898.080399, 308.336664)">
&#x9;&#x9;<g>
&#x9;&#x9;&#x9;<path class="st1" d="M324.96,103.76c-4.53,0-8.6-0.95-12.23-2.83c-3.62-1.9-6.47-4.55-8.52-7.94c-2.06-3.4-3.08-7.26-3.08-11.58&#xA;&#x9;&#x9;&#x9;&#x9;c0-4.32,1.03-8.18,3.08-11.58c2.05-3.4,4.9-6.05,8.52-7.94c3.62-1.89,7.7-2.83,12.23-2.83c4.15,0,7.85,0.74,11.1,2.21&#xA;&#x9;&#x9;&#x9;&#x9;c3.26,1.46,5.95,3.57,8.06,6.33l-9.1,8.12c-2.64-3.33-5.75-5-9.33-5c-3.02,0-5.44,0.97-7.27,2.9c-1.83,1.93-2.75,4.53-2.75,7.79&#xA;&#x9;&#x9;&#x9;&#x9;c0,3.25,0.92,5.85,2.75,7.79c1.83,1.93,4.26,2.9,7.27,2.9c3.58,0,6.69-1.67,9.33-5.02l9.1,8.12c-2.11,2.78-4.8,4.91-8.06,6.38&#xA;&#x9;&#x9;&#x9;&#x9;C332.82,103.03,329.12,103.76,324.96,103.76z"></path>
&#x9;&#x9;</g>
&#x9;</g>
</g>
<g>
&#x9;<g transform="translate(936.148344, 308.336664)">
&#x9;&#x9;<g>
&#x9;&#x9;&#x9;<path class="st1" d="M315.53,60.03h14.42v42.75h-14.42V60.03z"></path>
&#x9;&#x9;</g>
&#x9;</g>
</g>
<g>
&#x9;<g transform="translate(956.167722, 308.336664)">
&#x9;&#x9;<g>
&#x9;&#x9;&#x9;<path class="st1" d="M344.62,103.76c-4.6,0-8.73-0.96-12.4-2.88c-3.67-1.92-6.54-4.57-8.62-7.96c-2.07-3.4-3.1-7.24-3.1-11.52&#xA;&#x9;&#x9;&#x9;&#x9;c0-4.28,1.03-8.11,3.1-11.52c2.08-3.4,4.96-6.05,8.62-7.96c3.67-1.92,7.8-2.88,12.4-2.88c4.59,0,8.73,0.96,12.4,2.88&#xA;&#x9;&#x9;&#x9;&#x9;c3.67,1.91,6.53,4.56,8.6,7.96c2.08,3.41,3.12,7.24,3.12,11.52c0,4.28-1.04,8.12-3.12,11.52c-2.07,3.39-4.94,6.04-8.6,7.96&#xA;&#x9;&#x9;&#x9;&#x9;C353.35,102.8,349.21,103.76,344.62,103.76z M344.62,92.09c1.79,0,3.41-0.44,4.85-1.31c1.44-0.88,2.59-2.11,3.44-3.73&#xA;&#x9;&#x9;&#x9;&#x9;c0.86-1.61,1.29-3.49,1.29-5.65c0-2.17-0.43-4.05-1.29-5.65c-0.85-1.61-1.99-2.85-3.44-3.73c-1.45-0.88-3.06-1.31-4.85-1.31&#xA;&#x9;&#x9;&#x9;&#x9;c-1.79,0-3.41,0.44-4.85,1.31c-1.45,0.88-2.6,2.12-3.46,3.73c-0.85,1.6-1.27,3.48-1.27,5.65c0,2.16,0.42,4.04,1.27,5.65&#xA;&#x9;&#x9;&#x9;&#x9;c0.86,1.61,2.01,2.85,3.46,3.73C341.21,91.65,342.83,92.09,344.62,92.09z M346.29,46.76h13.12l-12.04,9.77h-9.15L346.29,46.76z"></path>
&#x9;&#x9;</g>
&#x9;</g>
</g>
<g>
&#x9;<g transform="translate(998.999705, 308.336664)">
&#x9;&#x9;<g>
&#x9;&#x9;&#x9;<path class="st1" d="M378.62,60.03v42.75h-11.85l-16.25-19.42v19.42h-14.04V60.03h11.85l16.25,19.42V60.03H378.62z"></path>
&#x9;&#x9;</g>
&#x9;</g>
</g>
<g>
&#x9;<defs>
&#x9;&#x9;<rect id="SVGID_00000003066568717896796110000008497887765536287135_" x="305.91" y="437.7" width="1297.4" height="137.73"></rect>
&#x9;</defs>
&#x9;<clipPath id="SVGID_00000179620477542874216710000008157296675485978540_">
&#x9;&#x9;<use xlink:href="#SVGID_00000003066568717896796110000008497887765536287135_" style="overflow:visible;"></use>
&#x9;</clipPath>
&#x9;<g style="clip-path:url(#SVGID_00000179620477542874216710000008157296675485978540_);">
&#x9;&#x9;<g>
&#x9;&#x9;&#x9;<defs>
&#x9;&#x9;&#x9;&#x9;<path id="SVGID_00000008869003009637771360000004680953834082427312_" d="M313.51,475.6c16.09,10.1,18.51,12.3,21.93,15.8&#xA;&#x9;&#x9;&#x9;&#x9;&#x9;c5.03,5.2,10.16,13.4,17.5,20.3c9.66,9.1,26.45,29,36.71,27.9c8.85-1,15.29-18.7,22.23-26.1c5.43-6,10.16-9.8,15.49-15.4&#xA;&#x9;&#x9;&#x9;&#x9;&#x9;c5.93-6.5,13.28-18.4,18.31-21.6c2.41-1.5,3.92-2,6.54-1.7c4.62,0.5,11.57,5.8,18.1,9.9c8.35,5.3,17.1,12,27.26,20&#xA;&#x9;&#x9;&#x9;&#x9;&#x9;c13.78,10.9,48.38,36,47.38,40.3c-0.3,1.4-5.13,2.5-6.04,1.4c-2.71-3.3,20.42-42.3,26.15-55.7c3.22-7.4,4.03-12.9,6.84-17.5&#xA;&#x9;&#x9;&#x9;&#x9;&#x9;c2.31-3.7,4.93-8.1,8.04-8.8c2.92-0.7,7.24,1.6,10.16,3.7c3.02,2.3,4.02,6.1,7.14,10c4.83,6.2,13.88,14.8,20.22,22.7&#xA;&#x9;&#x9;&#x9;&#x9;&#x9;c6.23,7.8,12.27,17.6,17.5,24.2c3.82,4.7,8.15,12.1,10.46,11.7c1.71-0.3,1.41-4.1,3.12-7.9c5.33-11.6,25.85-57.5,34.8-67.2&#xA;&#x9;&#x9;&#x9;&#x9;&#x9;c3.22-3.6,5.73-4.8,8.75-5.6c2.71-0.6,5.63-0.5,8.15,0.5c2.82,1.1,5.03,3.8,7.74,6.5c3.82,3.8,7.04,7.9,12.57,14.9&#xA;&#x9;&#x9;&#x9;&#x9;&#x9;c11.97,14.9,57.63,65.4,55.02,72.2c-0.7,2.1-5.93,2.5-7.64,1.6c-1.41-0.7-2.11-3.5-2.42-5.6c-0.3-2.5,0.4-5.5,1.21-8.5&#xA;&#x9;&#x9;&#x9;&#x9;&#x9;c0.91-3.7,2.52-7.6,4.62-11.8c2.72-5.4,7.85-11.6,11.07-17.6c3.22-5.9,6.14-12.6,8.34-18.3c1.91-4.9,3.32-9.3,4.53-14&#xA;&#x9;&#x9;&#x9;&#x9;&#x9;c1.11-4.6,1.11-11.4,2.52-14.2c0.7-1.3,1.41-1.9,2.52-2.5c1.41-0.7,3.62-1.3,5.33-1c1.61,0.3,3.52,1.4,4.53,2.7&#xA;&#x9;&#x9;&#x9;&#x9;&#x9;c1.1,1.3,1.71,5,1.71,5.1c-0.1,0-3.12-6.2-2.61-6.5c0.5-0.4,3.52,2.6,5.73,4.9c3.92,4.2,9.76,11.6,14.98,19&#xA;&#x9;&#x9;&#x9;&#x9;&#x9;c6.74,9.6,13.18,22.4,21.32,34.4c9.45,13.9,28.97,37.4,32.39,43.9c0.91,1.7,1.11,2.3,1.21,3.4c0.1,1.2,0,2.4-0.51,3.6&#xA;&#x9;&#x9;&#x9;&#x9;&#x9;c-0.6,1.3-2.31,3.1-3.62,3.9c-1.1,0.6-2.31,0.8-3.52,0.8c-1.2-0.1-2.51-0.4-3.52-1c-1.01-0.5-2.21-1.2-2.61-2.4&#xA;&#x9;&#x9;&#x9;&#x9;&#x9;c-0.7-2.1,1.71-6.2,1.51-9.6c-0.3-4.1-3.22-8.2-4.02-13.3c-1.01-6.4-0.91-13.2-0.51-22.4c0.7-14.5,3.52-47.3,6.34-56.4&#xA;&#x9;&#x9;&#x9;&#x9;&#x9;c1.01-3.2,1.91-4.8,3.22-6c1.01-0.9,2.11-1.4,3.22-1.6c1.2-0.2,2.41-0.3,3.62,0.1c1.51,0.5,3.42,1.8,4.32,3.2&#xA;&#x9;&#x9;&#x9;&#x9;&#x9;c0.91,1.4-0.1,2.9,1.11,5.2c3.52,6.8,23.53,23.5,32.39,34.9c7.54,9.6,11.46,18.9,18.51,28.4c7.85,10.5,23.74,26.2,26.66,31.6&#xA;&#x9;&#x9;&#x9;&#x9;&#x9;c0.8,1.6,1.01,2.1,1.01,3.4c0,1.5-0.81,3.8-1.71,5.1c-0.71,1-1.81,1.7-2.82,2.1c-1.11,0.5-2.31,0.8-3.62,0.6&#xA;&#x9;&#x9;&#x9;&#x9;&#x9;c-1.51-0.2-3.93-0.8-4.83-2.3c-1.21-2,0.7-7,0.5-10.1c-0.2-2.9-1.2-4.8-1.31-7.9c-0.1-4.4,0.2-8.7,2.11-16.1&#xA;&#x9;&#x9;&#x9;&#x9;&#x9;c4.72-18.6,27.86-81.6,36.61-94.2c2.72-3.9,4.62-5.5,7.14-6.4c2.11-0.7,4.43-0.3,6.54,0.2c2.21,0.5,4.12,1.5,6.34,2.9&#xA;&#x9;&#x9;&#x9;&#x9;&#x9;c2.92,1.9,6.34,4.2,9.56,8c4.62,5.5,8.65,15.4,13.78,23.8c6.14,10,13.18,20.7,20.82,32.1c8.95,13.3,24.74,33.6,29.77,43.1&#xA;&#x9;&#x9;&#x9;&#x9;&#x9;c2.31,4.2,4.83,7.3,3.92,9.6c-0.91,2.3-7.34,5.3-9.05,4.3c-1.61-0.9-1.31-6.3-1.01-9.4s0.91-4.9,2.71-9&#xA;&#x9;&#x9;&#x9;&#x9;&#x9;c4.53-10.7,23.44-39.2,30.78-54.5c5.03-10.4,7.74-21.1,10.96-27.1c1.81-3.2,3.22-5.5,4.93-7c1.01-1,2.01-1.5,3.12-1.8&#xA;&#x9;&#x9;&#x9;&#x9;&#x9;c1.1-0.3,2.41-0.3,3.62-0.1c1.1,0.2,2.31,0.7,3.22,1.6c1.1,1,2.41,3,2.61,4.6c0.3,1.6-1.01,5.2-1.1,5.2c-0.1,0,0-7.4,0.7-7.6&#xA;&#x9;&#x9;&#x9;&#x9;&#x9;c0.7-0.1,2.21,4,3.52,7c2.51,5.4,4.93,13.3,9.15,22.5c7.14,15.6,33.99,55.8,31.28,61.6c-0.81,1.7-5.23,2.2-5.94,1.4&#xA;&#x9;&#x9;&#x9;&#x9;&#x9;c-1.2-1.6,5.33-10.4,8.25-17c4.12-9.1,8.05-21.4,13.28-32.9c6.23-13.4,18.31-36.8,22.13-42.5c1.1-1.5,1.41-2,2.41-2.7&#xA;&#x9;&#x9;&#x9;&#x9;&#x9;c0.91-0.6,2.11-1.2,3.32-1.2c1.61-0.1,3.82,0.3,5.23,1.2c1.41,1,2.61,2.8,3.02,4.4c0.4,1.6-0.6,5.3-0.6,5.3&#xA;&#x9;&#x9;&#x9;&#x9;&#x9;c-0.1,0-0.2-6.1,0.4-6.2c1.31-0.3,5.43,11.3,8.65,17c3.42,6.2,7.95,11.8,11.57,18.7c4.12,8,7.74,19.2,11.17,26.5&#xA;&#x9;&#x9;&#x9;&#x9;&#x9;c2.51,5.3,4.53,9.1,7.14,13.6c2.71,4.6,9.95,10.7,9.05,13.7c-0.7,2.3-7.74,4.9-9.26,4c-1.21-0.7-0.91-3.5-0.7-6.4&#xA;&#x9;&#x9;&#x9;&#x9;&#x9;c0.5-6.2,5.23-20,8.15-29.1c2.52-8.3,4.73-14.6,8.15-23.5c4.73-12.1,11.97-33.8,17.8-42.1c3.02-4.2,5.64-7.5,8.95-8.1&#xA;&#x9;&#x9;&#x9;&#x9;&#x9;c3.32-0.7,7.65,1.4,10.86,4c4.43,3.5,8.05,11.5,11.46,17.3c3.22,5.5,5.03,10.5,8.55,16.7c4.62,8.2,11.67,17.7,17.5,27.9&#xA;&#x9;&#x9;&#x9;&#x9;&#x9;c6.64,11.6,13.98,29.6,19.71,38.2c3.22,4.8,9.45,8.6,8.75,10.4c-0.5,1.5-7.24,2.5-8.65,1.4c-1.31-1-0.7-4.3-0.7-6.7&#xA;&#x9;&#x9;&#x9;&#x9;&#x9;c0-3.2,0.3-6.7,1.01-10.5c1.01-4.8,2.52-9.9,5.03-16c3.52-8.9,10.66-20.5,15.49-31.4c5.13-11.5,10.56-29.4,14.48-36.1&#xA;&#x9;&#x9;&#x9;&#x9;&#x9;c1.71-2.9,2.52-4.7,4.62-5.6c2.31-1,6.54-0.4,8.95,0.7c2.21,1,3.11,2.9,5.13,5.3c3.42,4.3,9.55,13.6,12.77,18.6&#xA;&#x9;&#x9;&#x9;&#x9;&#x9;c2.11,3.2,3.32,5,4.93,8.2c2.21,4.4,3.12,9.3,6.54,16c6.44,12.6,35.1,46.7,32.59,52.1c-1.01,2-6.84,2.7-8.25,1.1&#xA;&#x9;&#x9;&#x9;&#x9;&#x9;c-2.61-2.9,4.22-20.8,7.14-29.6c2.42-7.4,5.53-11.9,8.55-19.8c4.32-11.3,9.96-34.8,14.18-41.8c1.71-2.8,2.92-4.1,4.93-5&#xA;&#x9;&#x9;&#x9;&#x9;&#x9;c2.11-1,5.43-1.3,7.74-0.7s4.22,2.2,6.34,4.2c3.02,3.1,6.54,8.9,9.25,13.3c2.42,4.1,4.53,8.2,6.34,12.3&#xA;&#x9;&#x9;&#x9;&#x9;&#x9;c1.71,4,2.61,8.1,4.32,11.9c1.71,3.6,3.52,6.4,6.04,10.4c3.42,5.6,9.66,15.6,13.28,19.9c2.01,2.3,3.62,2.8,5.23,4.9&#xA;&#x9;&#x9;&#x9;&#x9;&#x9;c2.01,2.4,4.22,6.2,5.33,9c0.91,2.2,1.61,4.3,1.31,6.2c-0.2,1.7-1.51,3.6-2.61,4.6c-0.91,0.9-2.11,1.3-3.22,1.6&#xA;&#x9;&#x9;&#x9;&#x9;&#x9;c-1.21,0.2-2.52,0.2-3.62-0.1c-1.1-0.4-2.31-1-3.11-1.8c-0.91-0.8-1.51-1.4-2.01-3c-1.31-4.3-0.81-19.1-0.2-25.8&#xA;&#x9;&#x9;&#x9;&#x9;&#x9;c0.4-4.3,0.91-6.6,2.01-10.6c1.41-5.5,5.03-12.4,6.84-18.9c1.81-6.7,5.33-18.3,3.82-20.9c-0.5-1-2.11-0.3-2.71-1.1&#xA;&#x9;&#x9;&#x9;&#x9;&#x9;c-0.81-0.8-1.31-2.9-1.01-4.1c0.4-1.2,1.81-2.6,2.92-3.1c1.2-0.4,3.22,0.1,4.22,0.7c0.8,0.5,1.41,1.5,1.61,2.4&#xA;&#x9;&#x9;&#x9;&#x9;&#x9;c0.3,0.8,0.3,2-0.1,2.8c-0.5,1.1-2.11,2.4-3.21,2.8c-0.91,0.3-2.02,0.1-2.92-0.3c-0.8-0.4-1.6-1.2-2.11-2&#xA;&#x9;&#x9;&#x9;&#x9;&#x9;c-0.4-0.8-0.6-1.9-0.51-2.8c0.2-0.9,0.71-1.9,1.41-2.5c0.6-0.7,1.41-1,2.61-1.3c2.21-0.5,7.65-1.4,10.16,0.1&#xA;&#x9;&#x9;&#x9;&#x9;&#x9;c2.42,1.3,4.22,5.2,4.73,7.8c0.6,2.4-0.3,4.2-0.81,7.1c-0.7,4.7-1.81,12-3.52,18.4c-2.02,7.1-6.44,14.2-7.95,22.2&#xA;&#x9;&#x9;&#x9;&#x9;&#x9;c-1.61,8.6,0.8,22.5-0.7,27.8c-0.6,2.3-1.31,3.5-2.61,4.6c-1.31,1.1-3.42,1.8-5.03,1.7c-1.71,0-3.72-0.8-4.93-2&#xA;&#x9;&#x9;&#x9;&#x9;&#x9;c-1.51-1.5-1.21-4.4-2.72-6.6c-1.91-3-6.44-6.2-8.75-9c-1.81-2.3-2.61-3.8-4.42-6.6c-3.32-4.9-9.56-13.2-13.58-20.6&#xA;&#x9;&#x9;&#x9;&#x9;&#x9;c-4.33-8-7.95-20-11.07-25.7c-1.71-3.2-3.92-4.7-4.53-7c-0.6-2,0.51-6,0.1-6.1c-0.91-0.1-6.04,20.2-9.66,29.8&#xA;&#x9;&#x9;&#x9;&#x9;&#x9;c-3.42,9.3-8.35,18.8-11.27,27.2c-2.42,7-3.62,14.5-5.23,19.7c-1.21,3.5-1.91,6-3.42,8.7c-1.41,2.6-2.71,6.2-5.23,7.3&#xA;&#x9;&#x9;&#x9;&#x9;&#x9;c-2.72,1.1-8.05,0.2-10.96-1.8c-3.32-2.3-4.43-8.6-7.04-12.5c-2.61-3.8-5.73-6.5-8.45-10.7c-3.62-5.5-7.04-13.9-10.46-19.8&#xA;&#x9;&#x9;&#x9;&#x9;&#x9;c-3.02-5-6.54-8.7-8.95-13.3c-2.42-4.6-3.12-9.3-5.73-14.3c-3.42-6.3-10.76-14.7-13.58-20.2c-1.81-3.4-4.22-7.5-3.22-8.7&#xA;&#x9;&#x9;&#x9;&#x9;&#x9;c0.8-1.1,6.04-1.1,7.14,0.6c2.42,4-9.26,24.5-14.48,36.1c-5.03,11.3-12.67,24-16.09,32.9c-2.11,5.6-3.02,9.2-4.02,14.3&#xA;&#x9;&#x9;&#x9;&#x9;&#x9;c-1.01,5.7,1.21,14.5-1.51,18.3c-2.01,3-7.14,5-10.06,4.7c-2.52-0.2-4.73-2.9-6.54-4.6c-1.71-1.5-2.61-2.7-4.22-4.7&#xA;&#x9;&#x9;&#x9;&#x9;&#x9;c-2.52-3.2-5.94-7.9-9.05-13.3c-4.22-7.4-7.44-16.9-13.18-27.6c-8.45-15.7-32.99-47-34.4-56.9c-0.5-3.3,2.11-6.8,1.81-6.9&#xA;&#x9;&#x9;&#x9;&#x9;&#x9;c-0.3-0.1-2.01,3.1-3.52,6.1c-3.72,7.9-12.07,28.3-17.4,43.4c-5.63,16.2-8.95,43.7-15.19,50.8c-2.61,3-5.83,4.1-8.35,3.9&#xA;&#x9;&#x9;&#x9;&#x9;&#x9;c-2.31-0.2-4.12-1.9-6.23-4c-3.32-3.2-7.14-10.4-10.26-15.6c-2.81-4.8-4.93-8.8-7.54-14.4c-3.42-7.4-6.94-18.3-10.96-26.1&#xA;&#x9;&#x9;&#x9;&#x9;&#x9;c-3.52-6.7-7.95-12.2-11.36-18.2c-3.12-5.5-6.94-11.8-8.25-16.4c-0.91-3.2-1.41-6.4-0.8-8.4c0.4-1.2,1.41-2,2.41-2.7&#xA;&#x9;&#x9;&#x9;&#x9;&#x9;c0.91-0.6,2.21-1.1,3.32-1.2c1.21-0.2,2.52,0,3.62,0.4c1.1,0.4,2.21,1.2,2.92,2c0.8,0.9,1.41,2.1,1.71,3.2&#xA;&#x9;&#x9;&#x9;&#x9;&#x9;c0.3,1.1,0.51,1.8,0,3.6c-1.51,6.5-15.79,29.2-22.03,42.7c-5.43,11.9-9.86,25.4-13.88,34.1c-2.52,5.6-4.83,9.8-6.94,13.6&#xA;&#x9;&#x9;&#x9;&#x9;&#x9;c-1.51,2.9-2.41,5.6-4.22,7.3c-1.61,1.5-3.52,2.9-5.73,2.9c-3.02,0.1-6.84-1.1-10.66-4.7c-9.55-9.1-26.45-50.9-33.39-66&#xA;&#x9;&#x9;&#x9;&#x9;&#x9;c-3.52-7.8-5.33-11.9-7.34-17.9c-2.01-5.9-6.03-14.6-4.83-17.9c0.6-1.8,2.82-2.7,4.33-3.2c1.2-0.4,2.41-0.3,3.62-0.1&#xA;&#x9;&#x9;&#x9;&#x9;&#x9;c1.1,0.2,2.31,0.7,3.22,1.6c1.1,1,2.31,3.1,2.61,4.6c0.3,1.2,0.1,2.2-0.3,3.6c-0.7,2.1-2.82,4.2-4.43,7.6&#xA;&#x9;&#x9;&#x9;&#x9;&#x9;c-3.02,6-5.73,16-10.56,25.9c-6.94,14.2-24.04,40.6-28.67,50.2c-1.71,3.7-2.42,5.1-3.02,7.9c-0.7,2.9-0.1,6.4-0.8,9&#xA;&#x9;&#x9;&#x9;&#x9;&#x9;c-0.51,2.1-1.1,4.1-2.41,5.5c-1.51,1.5-4.33,3.4-6.54,3c-3.02-0.5-7.34-6.1-9.45-9.3c-1.61-2.5-1.1-4.2-2.92-7.6&#xA;&#x9;&#x9;&#x9;&#x9;&#x9;c-4.53-8.5-19.11-26.7-29.37-42.2c-11.97-18.2-26.55-61.6-38.02-60.6c-13.38,1.3-31.18,75.9-35.2,89.6c-1.1,4-1.21,4.8-1.51,7.8&#xA;&#x9;&#x9;&#x9;&#x9;&#x9;c-0.51,4.1,0.2,10.5-0.51,14.4c-0.4,2.8-1.61,7.1-2.11,7c-0.6,0-1.51-8.6-1.01-8.8c0.3-0.1,1.51,1.9,1.81,3.1&#xA;&#x9;&#x9;&#x9;&#x9;&#x9;c0.3,1.5,0.1,3.9-0.4,5.3c-0.51,1.2-1.21,2.1-2.31,2.8c-1.31,0.9-3.42,1.6-5.13,1.5c-1.61-0.1-2.82-0.7-4.83-2.3&#xA;&#x9;&#x9;&#x9;&#x9;&#x9;c-5.64-4.3-18.81-20.9-26.56-31.3c-7.04-9.4-11.16-18.9-18.3-28.1c-7.74-10.2-20.72-21.1-26.85-30&#xA;&#x9;&#x9;&#x9;&#x9;&#x9;c-4.23-6.1-8.85-12.9-8.76-16.7c0-2,1.51-3.6,2.62-4.6c0.9-0.9,2.11-1.4,3.22-1.6c1.2-0.2,2.41-0.3,3.62,0.1&#xA;&#x9;&#x9;&#x9;&#x9;&#x9;c1.51,0.5,3.42,2,4.32,3.2c0.7,1,1.01,1.5,1.21,3.4c0.8,7.5-5.93,46.6-6.84,57.8c-0.3,4.6-0.51,6.1-0.41,9.8&#xA;&#x9;&#x9;&#x9;&#x9;&#x9;c0.2,4.7,1.61,10.5,1.71,16.1c0.3,6-0.51,18.7-0.6,18.7s-0.4-8-0.2-8.1c0.2,0,1.41,3.6,1.21,5.2c-0.3,1.7-1.31,3.6-2.61,4.7&#xA;&#x9;&#x9;&#x9;&#x9;&#x9;c-1.31,1.1-3.52,1.7-5.03,1.8c-1.31,0-2.51-0.4-3.52-1c-1.01-0.5-1.31-1-2.61-2.4c-4.93-5.5-23.13-30.3-32.59-44.1&#xA;&#x9;&#x9;&#x9;&#x9;&#x9;c-7.94-11.9-13.47-23.3-20.72-33.7c-6.74-9.7-20.32-21.5-21.02-27c-0.3-2.2,1.11-3.7,2.11-4.9c0.9-0.9,2.01-1.5,3.11-1.9&#xA;&#x9;&#x9;&#x9;&#x9;&#x9;c1.11-0.3,2.31-0.5,3.62-0.2c1.51,0.3,3.52,1.6,4.53,2.7c0.9,0.9,1.31,1.9,1.51,3.3c0.4,1.8,0,4.1-0.4,6.9&#xA;&#x9;&#x9;&#x9;&#x9;&#x9;c-0.51,4.2-1.51,9.8-3.42,15.8c-2.61,8.2-7.64,19.8-12.17,28.5c-4.12,7.8-10.96,14.7-13.38,21.5c-1.91,5.4-0.8,11-1.91,15.5&#xA;&#x9;&#x9;&#x9;&#x9;&#x9;c-1.01,3.8-1.61,8.8-4.12,10.1c-2.72,1.4-9.16-0.9-11.97-2.5c-2.11-1.1-2.41-2.3-4.32-4.7c-5.13-6.3-18.51-26.6-25.65-35.7&#xA;&#x9;&#x9;&#x9;&#x9;&#x9;c-4.63-6-7.44-8.4-12.17-14.3c-7.24-9.1-17.5-36.3-26.45-35.6c-11.97,1-28.46,60.3-36.51,71.4c-2.82,3.9-4.53,5.4-6.94,7.1&#xA;&#x9;&#x9;&#x9;&#x9;&#x9;c-1.91,1.4-3.72,2.5-5.93,2.8c-2.61,0.3-6.34-0.4-8.85-1.6c-2.31-1-3.32-2.2-5.73-4.7c-5.64-6-17.3-23.9-25.65-34&#xA;&#x9;&#x9;&#x9;&#x9;&#x9;c-7.14-8.7-15.89-17.2-20.92-23.5c-3.02-3.8-7.55-8.5-6.84-9.6c0.6-0.9,6.54-0.4,7.54,1.3c1.51,2.8-3.82,10.5-7.14,18.2&#xA;&#x9;&#x9;&#x9;&#x9;&#x9;c-6.04,13.9-19.82,49.7-27.26,57.7c-2.81,3-5.03,4.1-7.64,4.4c-2.72,0.3-4.83-0.6-8.65-2.7c-10.26-5.7-36.11-31.6-51.3-43.6&#xA;&#x9;&#x9;&#x9;&#x9;&#x9;c-11.47-9-22.73-23.8-30.98-22.7c-6.54,0.8-10.46,13.5-15.49,19c-4.12,4.6-7.74,7.1-12.27,11.8c-5.93,6.3-15.29,18-19.81,22.8&#xA;&#x9;&#x9;&#x9;&#x9;&#x9;c-2.31,2.3-3.22,3.3-5.33,4.8c-2.71,2.1-6.54,5.6-10.06,5.9c-3.42,0.2-7.65-2.8-10.76-4.4c-2.52-1.3-3.52-2.3-6.44-4.4&#xA;&#x9;&#x9;&#x9;&#x9;&#x9;c-6.64-4.8-20.92-14.5-31.18-24.1c-11.87-11.2-31.58-33.8-34.8-39.9c-0.8-1.4-0.9-2.1-0.8-3.1c0.1-1,0.7-2.2,1.41-2.9&#xA;&#x9;&#x9;&#x9;&#x9;&#x9;c0.81-0.7,2.02-1.2,3.02-1.2C311.49,474.5,313.51,475.6,313.51,475.6z"></path>
&#x9;&#x9;&#x9;</defs>
&#x9;&#x9;&#x9;<clipPath id="SVGID_00000074432309855489178110000005513905439841317777_">
&#x9;&#x9;&#x9;&#x9;<use xlink:href="#SVGID_00000008869003009637771360000004680953834082427312_" style="overflow:visible;"></use>
&#x9;&#x9;&#x9;</clipPath>
&#x9;&#x9;&#x9;<g style="clip-path:url(#SVGID_00000074432309855489178110000005513905439841317777_);">
&#x9;&#x9;&#x9;&#x9;<g transform="matrix(1, 0, 0, 1, 229, 328)">
&#x9;&#x9;&#x9;&#x9;&#x9;<g>
&#x9;&#x9;&#x9;&#x9;&#x9;&#x9;<defs>
&#x9;&#x9;&#x9;&#x9;&#x9;&#x9;&#x9;
&#x9;&#x9;&#x9;&#x9;&#x9;&#x9;&#x9;&#x9;<rect id="SVGID_00000068668349880246785200000002291926320679853227_" x="76.33" y="109.33" width="1298.67" height="138.67"></rect>
&#x9;&#x9;&#x9;&#x9;&#x9;&#x9;</defs>
&#x9;&#x9;&#x9;&#x9;&#x9;&#x9;<clipPath id="SVGID_00000079454913976108867130000006807849971866723996_">
&#x9;&#x9;&#x9;&#x9;&#x9;&#x9;&#x9;<use xlink:href="#SVGID_00000068668349880246785200000002291926320679853227_" style="overflow:visible;"></use>
&#x9;&#x9;&#x9;&#x9;&#x9;&#x9;</clipPath>
&#x9;&#x9;&#x9;&#x9;&#x9;&#x9;<g style="clip-path:url(#SVGID_00000079454913976108867130000006807849971866723996_);">
&#x9;&#x9;&#x9;&#x9;&#x9;&#x9;&#x9;<g>
&#x9;&#x9;&#x9;&#x9;&#x9;&#x9;&#x9;&#x9;<defs>
&#x9;&#x9;&#x9;&#x9;&#x9;&#x9;&#x9;&#x9;&#x9;
&#x9;&#x9;&#x9;&#x9;&#x9;&#x9;&#x9;&#x9;&#x9;&#x9;<rect id="SVGID_00000039113325849831843960000005218801146161612934_" x="76.91" y="109.7" width="1297.4" height="137.73"></rect>
&#x9;&#x9;&#x9;&#x9;&#x9;&#x9;&#x9;&#x9;</defs>
&#x9;&#x9;&#x9;&#x9;&#x9;&#x9;&#x9;&#x9;<clipPath id="SVGID_00000059994100262710334490000011417612774338894746_">
&#x9;&#x9;&#x9;&#x9;&#x9;&#x9;&#x9;&#x9;&#x9;<use xlink:href="#SVGID_00000039113325849831843960000005218801146161612934_" style="overflow:visible;"></use>
&#x9;&#x9;&#x9;&#x9;&#x9;&#x9;&#x9;&#x9;</clipPath>
&#x9;&#x9;&#x9;&#x9;&#x9;&#x9;&#x9;&#x9;<g style="clip-path:url(#SVGID_00000059994100262710334490000011417612774338894746_);">
&#x9;&#x9;&#x9;&#x9;&#x9;&#x9;&#x9;&#x9;&#x9;<g>
&#x9;&#x9;&#x9;&#x9;&#x9;&#x9;&#x9;&#x9;&#x9;&#x9;<defs>
&#x9;&#x9;&#x9;&#x9;&#x9;&#x9;&#x9;&#x9;&#x9;&#x9;&#x9;<path id="SVGID_00000111165007759701673740000004256168945125491885_" d="M84.51,147.6c16.09,10.1,18.51,12.3,21.93,15.8&#xA;&#x9;&#x9;&#x9;&#x9;&#x9;&#x9;&#x9;&#x9;&#x9;&#x9;&#x9;&#x9;c5.03,5.2,10.16,13.4,17.5,20.3c9.66,9.1,26.45,29,36.71,27.9c8.85-1,15.29-18.7,22.23-26.1c5.43-6,10.16-9.8,15.49-15.4&#xA;&#x9;&#x9;&#x9;&#x9;&#x9;&#x9;&#x9;&#x9;&#x9;&#x9;&#x9;&#x9;c5.93-6.5,13.28-18.4,18.31-21.6c2.41-1.5,3.92-2,6.54-1.7c4.62,0.5,11.57,5.8,18.1,9.9c8.35,5.3,17.1,12,27.26,20&#xA;&#x9;&#x9;&#x9;&#x9;&#x9;&#x9;&#x9;&#x9;&#x9;&#x9;&#x9;&#x9;c13.78,10.9,48.38,36,47.38,40.3c-0.3,1.4-5.13,2.5-6.04,1.4c-2.71-3.3,20.42-42.3,26.15-55.7&#xA;&#x9;&#x9;&#x9;&#x9;&#x9;&#x9;&#x9;&#x9;&#x9;&#x9;&#x9;&#x9;c3.22-7.4,4.03-12.9,6.84-17.5c2.31-3.7,4.93-8.1,8.04-8.8c2.92-0.7,7.24,1.6,10.16,3.7c3.02,2.3,4.02,6.1,7.14,10&#xA;&#x9;&#x9;&#x9;&#x9;&#x9;&#x9;&#x9;&#x9;&#x9;&#x9;&#x9;&#x9;c4.83,6.2,13.88,14.8,20.22,22.7c6.23,7.8,12.27,17.6,17.5,24.2c3.82,4.7,8.15,12.1,10.46,11.7&#xA;&#x9;&#x9;&#x9;&#x9;&#x9;&#x9;&#x9;&#x9;&#x9;&#x9;&#x9;&#x9;c1.71-0.3,1.41-4.1,3.12-7.9c5.33-11.6,25.85-57.5,34.8-67.2c3.22-3.6,5.73-4.8,8.75-5.6c2.71-0.6,5.63-0.5,8.15,0.5&#xA;&#x9;&#x9;&#x9;&#x9;&#x9;&#x9;&#x9;&#x9;&#x9;&#x9;&#x9;&#x9;c2.82,1.1,5.03,3.8,7.74,6.5c3.82,3.8,7.04,7.9,12.57,14.9c11.97,14.9,57.63,65.4,55.02,72.2c-0.7,2.1-5.93,2.5-7.64,1.6&#xA;&#x9;&#x9;&#x9;&#x9;&#x9;&#x9;&#x9;&#x9;&#x9;&#x9;&#x9;&#x9;c-1.41-0.7-2.11-3.5-2.42-5.6c-0.3-2.5,0.4-5.5,1.21-8.5c0.91-3.7,2.52-7.6,4.62-11.8c2.72-5.4,7.85-11.6,11.07-17.6&#xA;&#x9;&#x9;&#x9;&#x9;&#x9;&#x9;&#x9;&#x9;&#x9;&#x9;&#x9;&#x9;c3.22-5.9,6.14-12.6,8.34-18.3c1.91-4.9,3.32-9.3,4.53-14c1.11-4.6,1.11-11.4,2.52-14.2c0.7-1.3,1.41-1.9,2.52-2.5&#xA;&#x9;&#x9;&#x9;&#x9;&#x9;&#x9;&#x9;&#x9;&#x9;&#x9;&#x9;&#x9;c1.41-0.7,3.62-1.3,5.33-1c1.61,0.3,3.52,1.4,4.53,2.7c1.1,1.3,1.71,5,1.71,5.1c-0.1,0-3.12-6.2-2.61-6.5&#xA;&#x9;&#x9;&#x9;&#x9;&#x9;&#x9;&#x9;&#x9;&#x9;&#x9;&#x9;&#x9;c0.5-0.4,3.52,2.6,5.73,4.9c3.92,4.2,9.76,11.6,14.98,19c6.74,9.6,13.18,22.4,21.32,34.4&#xA;&#x9;&#x9;&#x9;&#x9;&#x9;&#x9;&#x9;&#x9;&#x9;&#x9;&#x9;&#x9;c9.45,13.9,28.97,37.4,32.39,43.9c0.91,1.7,1.11,2.3,1.21,3.4c0.1,1.2,0,2.4-0.51,3.6c-0.6,1.3-2.31,3.1-3.62,3.9&#xA;&#x9;&#x9;&#x9;&#x9;&#x9;&#x9;&#x9;&#x9;&#x9;&#x9;&#x9;&#x9;c-1.1,0.6-2.31,0.8-3.52,0.8c-1.2-0.1-2.51-0.4-3.52-1c-1.01-0.5-2.21-1.2-2.61-2.4c-0.7-2.1,1.71-6.2,1.51-9.6&#xA;&#x9;&#x9;&#x9;&#x9;&#x9;&#x9;&#x9;&#x9;&#x9;&#x9;&#x9;&#x9;c-0.3-4.1-3.22-8.2-4.02-13.3c-1.01-6.4-0.91-13.2-0.51-22.4c0.7-14.5,3.52-47.3,6.34-56.4c1.01-3.2,1.91-4.8,3.22-6&#xA;&#x9;&#x9;&#x9;&#x9;&#x9;&#x9;&#x9;&#x9;&#x9;&#x9;&#x9;&#x9;c1.01-0.9,2.11-1.4,3.22-1.6c1.2-0.2,2.41-0.3,3.62,0.1c1.51,0.5,3.42,1.8,4.32,3.2c0.91,1.4-0.1,2.9,1.11,5.2&#xA;&#x9;&#x9;&#x9;&#x9;&#x9;&#x9;&#x9;&#x9;&#x9;&#x9;&#x9;&#x9;c3.52,6.8,23.53,23.5,32.39,34.9c7.54,9.6,11.46,18.9,18.51,28.4c7.85,10.5,23.74,26.2,26.66,31.6&#xA;&#x9;&#x9;&#x9;&#x9;&#x9;&#x9;&#x9;&#x9;&#x9;&#x9;&#x9;&#x9;c0.8,1.6,1.01,2.1,1.01,3.4c0,1.5-0.81,3.8-1.71,5.1c-0.71,1-1.81,1.7-2.82,2.1c-1.11,0.5-2.31,0.8-3.62,0.6&#xA;&#x9;&#x9;&#x9;&#x9;&#x9;&#x9;&#x9;&#x9;&#x9;&#x9;&#x9;&#x9;c-1.51-0.2-3.93-0.8-4.83-2.3c-1.21-2,0.7-7,0.5-10.1c-0.2-2.9-1.2-4.8-1.31-7.9c-0.1-4.4,0.2-8.7,2.11-16.1&#xA;&#x9;&#x9;&#x9;&#x9;&#x9;&#x9;&#x9;&#x9;&#x9;&#x9;&#x9;&#x9;c4.72-18.6,27.86-81.6,36.61-94.2c2.72-3.9,4.62-5.5,7.14-6.4c2.11-0.7,4.43-0.3,6.54,0.2c2.21,0.5,4.12,1.5,6.34,2.9&#xA;&#x9;&#x9;&#x9;&#x9;&#x9;&#x9;&#x9;&#x9;&#x9;&#x9;&#x9;&#x9;c2.92,1.9,6.34,4.2,9.56,8c4.62,5.5,8.65,15.4,13.78,23.8c6.14,10,13.18,20.7,20.82,32.1&#xA;&#x9;&#x9;&#x9;&#x9;&#x9;&#x9;&#x9;&#x9;&#x9;&#x9;&#x9;&#x9;c8.95,13.3,24.74,33.6,29.77,43.1c2.31,4.2,4.83,7.3,3.92,9.6c-0.91,2.3-7.34,5.3-9.05,4.3c-1.61-0.9-1.31-6.3-1.01-9.4&#xA;&#x9;&#x9;&#x9;&#x9;&#x9;&#x9;&#x9;&#x9;&#x9;&#x9;&#x9;&#x9;c0.3-3.1,0.91-4.9,2.71-9c4.53-10.7,23.44-39.2,30.78-54.5c5.03-10.4,7.74-21.1,10.96-27.1c1.81-3.2,3.22-5.5,4.93-7&#xA;&#x9;&#x9;&#x9;&#x9;&#x9;&#x9;&#x9;&#x9;&#x9;&#x9;&#x9;&#x9;c1.01-1,2.01-1.5,3.12-1.8c1.1-0.3,2.41-0.3,3.62-0.1c1.1,0.2,2.31,0.7,3.22,1.6c1.1,1,2.41,3,2.61,4.6&#xA;&#x9;&#x9;&#x9;&#x9;&#x9;&#x9;&#x9;&#x9;&#x9;&#x9;&#x9;&#x9;c0.3,1.6-1.01,5.2-1.1,5.2c-0.1,0,0-7.4,0.7-7.6c0.7-0.1,2.21,4,3.52,7c2.51,5.4,4.93,13.3,9.15,22.5&#xA;&#x9;&#x9;&#x9;&#x9;&#x9;&#x9;&#x9;&#x9;&#x9;&#x9;&#x9;&#x9;c7.14,15.6,33.99,55.8,31.28,61.6c-0.81,1.7-5.23,2.2-5.94,1.4c-1.2-1.6,5.33-10.4,8.25-17&#xA;&#x9;&#x9;&#x9;&#x9;&#x9;&#x9;&#x9;&#x9;&#x9;&#x9;&#x9;&#x9;c4.12-9.1,8.05-21.4,13.28-32.9c6.23-13.4,18.31-36.8,22.13-42.5c1.1-1.5,1.41-2,2.41-2.7c0.91-0.6,2.11-1.2,3.32-1.2&#xA;&#x9;&#x9;&#x9;&#x9;&#x9;&#x9;&#x9;&#x9;&#x9;&#x9;&#x9;&#x9;c1.61-0.1,3.82,0.3,5.23,1.2c1.41,1,2.61,2.8,3.02,4.4c0.4,1.6-0.6,5.3-0.6,5.3c-0.1,0-0.2-6.1,0.4-6.2&#xA;&#x9;&#x9;&#x9;&#x9;&#x9;&#x9;&#x9;&#x9;&#x9;&#x9;&#x9;&#x9;c1.31-0.3,5.43,11.3,8.65,17c3.42,6.2,7.95,11.8,11.57,18.7c4.12,8,7.74,19.2,11.17,26.5c2.51,5.3,4.53,9.1,7.14,13.6&#xA;&#x9;&#x9;&#x9;&#x9;&#x9;&#x9;&#x9;&#x9;&#x9;&#x9;&#x9;&#x9;c2.71,4.6,9.95,10.7,9.05,13.7c-0.7,2.3-7.74,4.9-9.26,4c-1.21-0.7-0.91-3.5-0.7-6.4c0.5-6.2,5.23-20,8.15-29.1&#xA;&#x9;&#x9;&#x9;&#x9;&#x9;&#x9;&#x9;&#x9;&#x9;&#x9;&#x9;&#x9;c2.52-8.3,4.73-14.6,8.15-23.5c4.73-12.1,11.97-33.8,17.8-42.1c3.02-4.2,5.64-7.5,8.95-8.1c3.32-0.7,7.65,1.4,10.86,4&#xA;&#x9;&#x9;&#x9;&#x9;&#x9;&#x9;&#x9;&#x9;&#x9;&#x9;&#x9;&#x9;c4.43,3.5,8.05,11.5,11.46,17.3c3.22,5.5,5.03,10.5,8.55,16.7c4.62,8.2,11.67,17.7,17.5,27.9&#xA;&#x9;&#x9;&#x9;&#x9;&#x9;&#x9;&#x9;&#x9;&#x9;&#x9;&#x9;&#x9;c6.64,11.6,13.98,29.6,19.71,38.2c3.22,4.8,9.45,8.6,8.75,10.4c-0.5,1.5-7.24,2.5-8.65,1.4c-1.31-1-0.7-4.3-0.7-6.7&#xA;&#x9;&#x9;&#x9;&#x9;&#x9;&#x9;&#x9;&#x9;&#x9;&#x9;&#x9;&#x9;c0-3.2,0.3-6.7,1.01-10.5c1.01-4.8,2.52-9.9,5.03-16c3.52-8.9,10.66-20.5,15.49-31.4c5.13-11.5,10.56-29.4,14.48-36.1&#xA;&#x9;&#x9;&#x9;&#x9;&#x9;&#x9;&#x9;&#x9;&#x9;&#x9;&#x9;&#x9;c1.71-2.9,2.52-4.7,4.62-5.6c2.31-1,6.54-0.4,8.95,0.7c2.21,1,3.11,2.9,5.13,5.3c3.42,4.3,9.55,13.6,12.77,18.6&#xA;&#x9;&#x9;&#x9;&#x9;&#x9;&#x9;&#x9;&#x9;&#x9;&#x9;&#x9;&#x9;c2.11,3.2,3.32,5,4.93,8.2c2.21,4.4,3.12,9.3,6.54,16c6.44,12.6,35.1,46.7,32.59,52.1c-1.01,2-6.84,2.7-8.25,1.1&#xA;&#x9;&#x9;&#x9;&#x9;&#x9;&#x9;&#x9;&#x9;&#x9;&#x9;&#x9;&#x9;c-2.61-2.9,4.22-20.8,7.14-29.6c2.42-7.4,5.53-11.9,8.55-19.8c4.32-11.3,9.96-34.8,14.18-41.8c1.71-2.8,2.92-4.1,4.93-5&#xA;&#x9;&#x9;&#x9;&#x9;&#x9;&#x9;&#x9;&#x9;&#x9;&#x9;&#x9;&#x9;c2.11-1,5.43-1.3,7.74-0.7s4.22,2.2,6.34,4.2c3.02,3.1,6.54,8.9,9.25,13.3c2.42,4.1,4.53,8.2,6.34,12.3&#xA;&#x9;&#x9;&#x9;&#x9;&#x9;&#x9;&#x9;&#x9;&#x9;&#x9;&#x9;&#x9;c1.71,4,2.61,8.1,4.32,11.9c1.71,3.6,3.52,6.4,6.04,10.4c3.42,5.6,9.66,15.6,13.28,19.9c2.01,2.3,3.62,2.8,5.23,4.9&#xA;&#x9;&#x9;&#x9;&#x9;&#x9;&#x9;&#x9;&#x9;&#x9;&#x9;&#x9;&#x9;c2.01,2.4,4.22,6.2,5.33,9c0.91,2.2,1.61,4.3,1.31,6.2c-0.2,1.7-1.51,3.6-2.61,4.6c-0.91,0.9-2.11,1.3-3.22,1.6&#xA;&#x9;&#x9;&#x9;&#x9;&#x9;&#x9;&#x9;&#x9;&#x9;&#x9;&#x9;&#x9;c-1.21,0.2-2.52,0.2-3.62-0.1c-1.1-0.4-2.31-1-3.11-1.8c-0.91-0.8-1.51-1.4-2.01-3c-1.31-4.3-0.81-19.1-0.2-25.8&#xA;&#x9;&#x9;&#x9;&#x9;&#x9;&#x9;&#x9;&#x9;&#x9;&#x9;&#x9;&#x9;c0.4-4.3,0.91-6.6,2.01-10.6c1.41-5.5,5.03-12.4,6.84-18.9c1.81-6.7,5.33-18.3,3.82-20.9c-0.5-1-2.11-0.3-2.71-1.1&#xA;&#x9;&#x9;&#x9;&#x9;&#x9;&#x9;&#x9;&#x9;&#x9;&#x9;&#x9;&#x9;c-0.81-0.8-1.31-2.9-1.01-4.1c0.4-1.2,1.81-2.6,2.92-3.1c1.2-0.4,3.22,0.1,4.22,0.7c0.8,0.5,1.41,1.5,1.61,2.4&#xA;&#x9;&#x9;&#x9;&#x9;&#x9;&#x9;&#x9;&#x9;&#x9;&#x9;&#x9;&#x9;c0.3,0.8,0.3,2-0.1,2.8c-0.5,1.1-2.11,2.4-3.21,2.8c-0.91,0.3-2.02,0.1-2.92-0.3c-0.8-0.4-1.6-1.2-2.11-2&#xA;&#x9;&#x9;&#x9;&#x9;&#x9;&#x9;&#x9;&#x9;&#x9;&#x9;&#x9;&#x9;c-0.4-0.8-0.6-1.9-0.51-2.8c0.2-0.9,0.71-1.9,1.41-2.5c0.6-0.7,1.41-1,2.61-1.3c2.21-0.5,7.65-1.4,10.16,0.1&#xA;&#x9;&#x9;&#x9;&#x9;&#x9;&#x9;&#x9;&#x9;&#x9;&#x9;&#x9;&#x9;c2.42,1.3,4.22,5.2,4.73,7.8c0.6,2.4-0.3,4.2-0.81,7.1c-0.7,4.7-1.81,12-3.52,18.4c-2.02,7.1-6.44,14.2-7.95,22.2&#xA;&#x9;&#x9;&#x9;&#x9;&#x9;&#x9;&#x9;&#x9;&#x9;&#x9;&#x9;&#x9;c-1.61,8.6,0.8,22.5-0.7,27.8c-0.6,2.3-1.31,3.5-2.61,4.6c-1.31,1.1-3.42,1.8-5.03,1.7c-1.71,0-3.72-0.8-4.93-2&#xA;&#x9;&#x9;&#x9;&#x9;&#x9;&#x9;&#x9;&#x9;&#x9;&#x9;&#x9;&#x9;c-1.51-1.5-1.21-4.4-2.72-6.6c-1.91-3-6.44-6.2-8.75-9c-1.81-2.3-2.61-3.8-4.42-6.6c-3.32-4.9-9.56-13.2-13.58-20.6&#xA;&#x9;&#x9;&#x9;&#x9;&#x9;&#x9;&#x9;&#x9;&#x9;&#x9;&#x9;&#x9;c-4.33-8-7.95-20-11.07-25.7c-1.71-3.2-3.92-4.7-4.53-7c-0.6-2,0.51-6,0.1-6.1c-0.91-0.1-6.04,20.2-9.66,29.8&#xA;&#x9;&#x9;&#x9;&#x9;&#x9;&#x9;&#x9;&#x9;&#x9;&#x9;&#x9;&#x9;c-3.42,9.3-8.35,18.8-11.27,27.2c-2.42,7-3.62,14.5-5.23,19.7c-1.21,3.5-1.91,6-3.42,8.7c-1.41,2.6-2.71,6.2-5.23,7.3&#xA;&#x9;&#x9;&#x9;&#x9;&#x9;&#x9;&#x9;&#x9;&#x9;&#x9;&#x9;&#x9;c-2.72,1.1-8.05,0.2-10.96-1.8c-3.32-2.3-4.43-8.6-7.04-12.5c-2.61-3.8-5.73-6.5-8.45-10.7&#xA;&#x9;&#x9;&#x9;&#x9;&#x9;&#x9;&#x9;&#x9;&#x9;&#x9;&#x9;&#x9;c-3.62-5.5-7.04-13.9-10.46-19.8c-3.02-5-6.54-8.7-8.95-13.3c-2.42-4.6-3.12-9.3-5.73-14.3&#xA;&#x9;&#x9;&#x9;&#x9;&#x9;&#x9;&#x9;&#x9;&#x9;&#x9;&#x9;&#x9;c-3.42-6.3-10.76-14.7-13.58-20.2c-1.81-3.4-4.22-7.5-3.22-8.7c0.8-1.1,6.04-1.1,7.14,0.6c2.42,4-9.26,24.5-14.48,36.1&#xA;&#x9;&#x9;&#x9;&#x9;&#x9;&#x9;&#x9;&#x9;&#x9;&#x9;&#x9;&#x9;c-5.03,11.3-12.67,24-16.09,32.9c-2.11,5.6-3.02,9.2-4.02,14.3c-1.01,5.7,1.21,14.5-1.51,18.3c-2.01,3-7.14,5-10.06,4.7&#xA;&#x9;&#x9;&#x9;&#x9;&#x9;&#x9;&#x9;&#x9;&#x9;&#x9;&#x9;&#x9;c-2.52-0.2-4.73-2.9-6.54-4.6c-1.71-1.5-2.61-2.7-4.22-4.7c-2.52-3.2-5.94-7.9-9.05-13.3c-4.22-7.4-7.44-16.9-13.18-27.6&#xA;&#x9;&#x9;&#x9;&#x9;&#x9;&#x9;&#x9;&#x9;&#x9;&#x9;&#x9;&#x9;c-8.45-15.7-32.99-47-34.4-56.9c-0.5-3.3,2.11-6.8,1.81-6.9c-0.3-0.1-2.01,3.1-3.52,6.1c-3.72,7.9-12.07,28.3-17.4,43.4&#xA;&#x9;&#x9;&#x9;&#x9;&#x9;&#x9;&#x9;&#x9;&#x9;&#x9;&#x9;&#x9;c-5.63,16.2-8.95,43.7-15.19,50.8c-2.61,3-5.83,4.1-8.35,3.9c-2.31-0.2-4.12-1.9-6.23-4c-3.32-3.2-7.14-10.4-10.26-15.6&#xA;&#x9;&#x9;&#x9;&#x9;&#x9;&#x9;&#x9;&#x9;&#x9;&#x9;&#x9;&#x9;c-2.81-4.8-4.93-8.8-7.54-14.4c-3.42-7.4-6.94-18.3-10.96-26.1c-3.52-6.7-7.95-12.2-11.36-18.2&#xA;&#x9;&#x9;&#x9;&#x9;&#x9;&#x9;&#x9;&#x9;&#x9;&#x9;&#x9;&#x9;c-3.12-5.5-6.94-11.8-8.25-16.4c-0.91-3.2-1.41-6.4-0.8-8.4c0.4-1.2,1.41-2,2.41-2.7c0.91-0.6,2.21-1.1,3.32-1.2&#xA;&#x9;&#x9;&#x9;&#x9;&#x9;&#x9;&#x9;&#x9;&#x9;&#x9;&#x9;&#x9;c1.21-0.2,2.52,0,3.62,0.4c1.1,0.4,2.21,1.2,2.92,2c0.8,0.9,1.41,2.1,1.71,3.2c0.3,1.1,0.51,1.8,0,3.6&#xA;&#x9;&#x9;&#x9;&#x9;&#x9;&#x9;&#x9;&#x9;&#x9;&#x9;&#x9;&#x9;c-1.51,6.5-15.79,29.2-22.03,42.7c-5.43,11.9-9.86,25.4-13.88,34.1c-2.52,5.6-4.83,9.8-6.94,13.6&#xA;&#x9;&#x9;&#x9;&#x9;&#x9;&#x9;&#x9;&#x9;&#x9;&#x9;&#x9;&#x9;c-1.51,2.9-2.41,5.6-4.22,7.3c-1.61,1.5-3.52,2.9-5.73,2.9c-3.02,0.1-6.84-1.1-10.66-4.7c-9.55-9.1-26.45-50.9-33.39-66&#xA;&#x9;&#x9;&#x9;&#x9;&#x9;&#x9;&#x9;&#x9;&#x9;&#x9;&#x9;&#x9;c-3.52-7.8-5.33-11.9-7.34-17.9c-2.01-5.9-6.03-14.6-4.83-17.9c0.6-1.8,2.82-2.7,4.33-3.2c1.2-0.4,2.41-0.3,3.62-0.1&#xA;&#x9;&#x9;&#x9;&#x9;&#x9;&#x9;&#x9;&#x9;&#x9;&#x9;&#x9;&#x9;c1.1,0.2,2.31,0.7,3.22,1.6c1.1,1,2.31,3.1,2.61,4.6c0.3,1.2,0.1,2.2-0.3,3.6c-0.7,2.1-2.82,4.2-4.43,7.6&#xA;&#x9;&#x9;&#x9;&#x9;&#x9;&#x9;&#x9;&#x9;&#x9;&#x9;&#x9;&#x9;c-3.02,6-5.73,16-10.56,25.9c-6.94,14.2-24.04,40.6-28.67,50.2c-1.71,3.7-2.42,5.1-3.02,7.9c-0.7,2.9-0.1,6.4-0.8,9&#xA;&#x9;&#x9;&#x9;&#x9;&#x9;&#x9;&#x9;&#x9;&#x9;&#x9;&#x9;&#x9;c-0.51,2.1-1.1,4.1-2.41,5.5c-1.51,1.5-4.33,3.4-6.54,3c-3.02-0.5-7.34-6.1-9.45-9.3c-1.61-2.5-1.1-4.2-2.92-7.6&#xA;&#x9;&#x9;&#x9;&#x9;&#x9;&#x9;&#x9;&#x9;&#x9;&#x9;&#x9;&#x9;c-4.53-8.5-19.11-26.7-29.37-42.2c-11.97-18.2-26.55-61.6-38.02-60.6c-13.38,1.3-31.18,75.9-35.2,89.6&#xA;&#x9;&#x9;&#x9;&#x9;&#x9;&#x9;&#x9;&#x9;&#x9;&#x9;&#x9;&#x9;c-1.1,4-1.21,4.8-1.51,7.8c-0.51,4.1,0.2,10.5-0.51,14.4c-0.4,2.8-1.61,7.1-2.11,7c-0.6,0-1.51-8.6-1.01-8.8&#xA;&#x9;&#x9;&#x9;&#x9;&#x9;&#x9;&#x9;&#x9;&#x9;&#x9;&#x9;&#x9;c0.3-0.1,1.51,1.9,1.81,3.1c0.3,1.5,0.1,3.9-0.4,5.3c-0.51,1.2-1.21,2.1-2.31,2.8c-1.31,0.9-3.42,1.6-5.13,1.5&#xA;&#x9;&#x9;&#x9;&#x9;&#x9;&#x9;&#x9;&#x9;&#x9;&#x9;&#x9;&#x9;c-1.61-0.1-2.82-0.7-4.83-2.3c-5.64-4.3-18.81-20.9-26.56-31.3c-7.04-9.4-11.16-18.9-18.3-28.1&#xA;&#x9;&#x9;&#x9;&#x9;&#x9;&#x9;&#x9;&#x9;&#x9;&#x9;&#x9;&#x9;c-7.74-10.2-20.72-21.1-26.85-30c-4.23-6.1-8.85-12.9-8.76-16.7c0-2,1.51-3.6,2.62-4.6c0.9-0.9,2.11-1.4,3.22-1.6&#xA;&#x9;&#x9;&#x9;&#x9;&#x9;&#x9;&#x9;&#x9;&#x9;&#x9;&#x9;&#x9;c1.2-0.2,2.41-0.3,3.62,0.1c1.51,0.5,3.42,2,4.32,3.2c0.7,1,1.01,1.5,1.21,3.4c0.8,7.5-5.93,46.6-6.84,57.8&#xA;&#x9;&#x9;&#x9;&#x9;&#x9;&#x9;&#x9;&#x9;&#x9;&#x9;&#x9;&#x9;c-0.3,4.6-0.51,6.1-0.41,9.8c0.2,4.7,1.61,10.5,1.71,16.1c0.3,6-0.51,18.7-0.6,18.7c-0.1,0-0.4-8-0.2-8.1&#xA;&#x9;&#x9;&#x9;&#x9;&#x9;&#x9;&#x9;&#x9;&#x9;&#x9;&#x9;&#x9;c0.2,0,1.41,3.6,1.21,5.2c-0.3,1.7-1.31,3.6-2.61,4.7c-1.31,1.1-3.52,1.7-5.03,1.8c-1.31,0-2.51-0.4-3.52-1&#xA;&#x9;&#x9;&#x9;&#x9;&#x9;&#x9;&#x9;&#x9;&#x9;&#x9;&#x9;&#x9;c-1.01-0.5-1.31-1-2.61-2.4c-4.93-5.5-23.13-30.3-32.59-44.1c-7.94-11.9-13.47-23.3-20.72-33.7&#xA;&#x9;&#x9;&#x9;&#x9;&#x9;&#x9;&#x9;&#x9;&#x9;&#x9;&#x9;&#x9;c-6.74-9.7-20.32-21.5-21.02-27c-0.3-2.2,1.11-3.7,2.11-4.9c0.9-0.9,2.01-1.5,3.11-1.9c1.11-0.3,2.31-0.5,3.62-0.2&#xA;&#x9;&#x9;&#x9;&#x9;&#x9;&#x9;&#x9;&#x9;&#x9;&#x9;&#x9;&#x9;c1.51,0.3,3.52,1.6,4.53,2.7c0.9,0.9,1.31,1.9,1.51,3.3c0.4,1.8,0,4.1-0.4,6.9c-0.51,4.2-1.51,9.8-3.42,15.8&#xA;&#x9;&#x9;&#x9;&#x9;&#x9;&#x9;&#x9;&#x9;&#x9;&#x9;&#x9;&#x9;c-2.61,8.2-7.64,19.8-12.17,28.5c-4.12,7.8-10.96,14.7-13.38,21.5c-1.91,5.4-0.8,11-1.91,15.5&#xA;&#x9;&#x9;&#x9;&#x9;&#x9;&#x9;&#x9;&#x9;&#x9;&#x9;&#x9;&#x9;c-1.01,3.8-1.61,8.8-4.12,10.1c-2.72,1.4-9.16-0.9-11.97-2.5c-2.11-1.1-2.41-2.3-4.32-4.7&#xA;&#x9;&#x9;&#x9;&#x9;&#x9;&#x9;&#x9;&#x9;&#x9;&#x9;&#x9;&#x9;c-5.13-6.3-18.51-26.6-25.65-35.7c-4.63-6-7.44-8.4-12.17-14.3c-7.24-9.1-17.5-36.3-26.45-35.6&#xA;&#x9;&#x9;&#x9;&#x9;&#x9;&#x9;&#x9;&#x9;&#x9;&#x9;&#x9;&#x9;c-11.97,1-28.46,60.3-36.51,71.4c-2.82,3.9-4.53,5.4-6.94,7.1c-1.91,1.4-3.72,2.5-5.93,2.8c-2.61,0.3-6.34-0.4-8.85-1.6&#xA;&#x9;&#x9;&#x9;&#x9;&#x9;&#x9;&#x9;&#x9;&#x9;&#x9;&#x9;&#x9;c-2.31-1-3.32-2.2-5.73-4.7c-5.64-6-17.3-23.9-25.65-34c-7.14-8.7-15.89-17.2-20.92-23.5c-3.02-3.8-7.55-8.5-6.84-9.6&#xA;&#x9;&#x9;&#x9;&#x9;&#x9;&#x9;&#x9;&#x9;&#x9;&#x9;&#x9;&#x9;c0.6-0.9,6.54-0.4,7.54,1.3c1.51,2.8-3.82,10.5-7.14,18.2c-6.04,13.9-19.82,49.7-27.26,57.7c-2.81,3-5.03,4.1-7.64,4.4&#xA;&#x9;&#x9;&#x9;&#x9;&#x9;&#x9;&#x9;&#x9;&#x9;&#x9;&#x9;&#x9;c-2.72,0.3-4.83-0.6-8.65-2.7c-10.26-5.7-36.11-31.6-51.3-43.6c-11.47-9-22.73-23.8-30.98-22.7&#xA;&#x9;&#x9;&#x9;&#x9;&#x9;&#x9;&#x9;&#x9;&#x9;&#x9;&#x9;&#x9;c-6.54,0.8-10.46,13.5-15.49,19c-4.12,4.6-7.74,7.1-12.27,11.8c-5.93,6.3-15.29,18-19.81,22.8&#xA;&#x9;&#x9;&#x9;&#x9;&#x9;&#x9;&#x9;&#x9;&#x9;&#x9;&#x9;&#x9;c-2.31,2.3-3.22,3.3-5.33,4.8c-2.71,2.1-6.54,5.6-10.06,5.9c-3.42,0.2-7.65-2.8-10.76-4.4c-2.52-1.3-3.52-2.3-6.44-4.4&#xA;&#x9;&#x9;&#x9;&#x9;&#x9;&#x9;&#x9;&#x9;&#x9;&#x9;&#x9;&#x9;c-6.64-4.8-20.92-14.5-31.18-24.1c-11.87-11.2-31.58-33.8-34.8-39.9c-0.8-1.4-0.9-2.1-0.8-3.1c0.1-1,0.7-2.2,1.41-2.9&#xA;&#x9;&#x9;&#x9;&#x9;&#x9;&#x9;&#x9;&#x9;&#x9;&#x9;&#x9;&#x9;c0.81-0.7,2.02-1.2,3.02-1.2C82.49,146.5,84.51,147.6,84.51,147.6z"></path>
&#x9;&#x9;&#x9;&#x9;&#x9;&#x9;&#x9;&#x9;&#x9;&#x9;</defs>
&#x9;&#x9;&#x9;&#x9;&#x9;&#x9;&#x9;&#x9;&#x9;&#x9;<clipPath id="SVGID_00000062188832763972762720000018076420470009759423_">
&#x9;&#x9;&#x9;&#x9;&#x9;&#x9;&#x9;&#x9;&#x9;&#x9;&#x9;<use xlink:href="#SVGID_00000111165007759701673740000004256168945125491885_" style="overflow:visible;"></use>
&#x9;&#x9;&#x9;&#x9;&#x9;&#x9;&#x9;&#x9;&#x9;&#x9;</clipPath>
&#x9;&#x9;&#x9;&#x9;&#x9;&#x9;&#x9;&#x9;&#x9;&#x9;<g style="clip-path:url(#SVGID_00000062188832763972762720000018076420470009759423_);">
&#x9;&#x9;&#x9;&#x9;&#x9;&#x9;&#x9;&#x9;&#x9;&#x9;&#x9;<rect x="-651.4" y="-565.6" class="st1" width="2764.8" height="1555.2"></rect>
&#x9;&#x9;&#x9;&#x9;&#x9;&#x9;&#x9;&#x9;&#x9;&#x9;</g>
&#x9;&#x9;&#x9;&#x9;&#x9;&#x9;&#x9;&#x9;&#x9;</g>
&#x9;&#x9;&#x9;&#x9;&#x9;&#x9;&#x9;&#x9;</g>
&#x9;&#x9;&#x9;&#x9;&#x9;&#x9;&#x9;</g>
&#x9;&#x9;&#x9;&#x9;&#x9;&#x9;</g>
&#x9;&#x9;&#x9;&#x9;&#x9;</g>
&#x9;&#x9;&#x9;&#x9;</g>
&#x9;&#x9;&#x9;</g>
&#x9;&#x9;</g>
&#x9;</g>
</g>
</svg>